<?xml version='1.0' encoding='utf-8'?>
<svg xmlns="http://www.w3.org/2000/svg" class="diagram" version="1.1" height="585" width="544" viewBox="0 0 544.0 585.0">
<g transform="translate(8,16)">
<path d="M 176,0 L 328,0" fill="none" stroke="black"/>
<path d="M 216,16 L 272,16" fill="none" stroke="black"/>
<path d="M 272,16 L 328,16" fill="none" stroke="black"/>
<path d="M 336,32 L 440,32" fill="none" stroke="black"/>
<path d="M 96,48 L 160,48" fill="none" stroke="black"/>
<path d="M 328,64 L 368,64" fill="none" stroke="black"/>
<path d="M 216,80 L 248,80" fill="none" stroke="black"/>
<path d="M 248,80 L 272,80" fill="none" stroke="black"/>
<path d="M 272,80 L 328,80" fill="none" stroke="black"/>
<path d="M 176,96 L 240,96" fill="none" stroke="black"/>
<path d="M 256,96 L 288,96" fill="none" stroke="black"/>
<path d="M 304,96 L 328,96" fill="none" stroke="black"/>
<path d="M 16,128 L 80,128" fill="none" stroke="black"/>
<path d="M 80,128 L 216,128" fill="none" stroke="black"/>
<path d="M 440,128 L 448,128" fill="none" stroke="black"/>
<path d="M 464,128 L 512,128" fill="none" stroke="black"/>
<path d="M 16,144 L 136,144" fill="none" stroke="black"/>
<path d="M 440,144 L 456,144" fill="none" stroke="black"/>
<path d="M 456,144 L 496,144" fill="none" stroke="black"/>
<path d="M 400,160 L 432,160" fill="none" stroke="black"/>
<path d="M 16,176 L 136,176" fill="none" stroke="black"/>
<path d="M 440,192 L 488,192" fill="none" stroke="black"/>
<path d="M 16,208 L 192,208" fill="none" stroke="black"/>
<path d="M 440,224 L 480,224" fill="none" stroke="black"/>
<path d="M 480,224 L 496,224" fill="none" stroke="black"/>
<path d="M 16,240 L 192,240" fill="none" stroke="black"/>
<path d="M 440,240 L 448,240" fill="none" stroke="black"/>
<path d="M 464,240 L 472,240" fill="none" stroke="black"/>
<path d="M 488,240 L 512,240" fill="none" stroke="black"/>
<path d="M 0,256 L 80,256" fill="none" stroke="black"/>
<path d="M 80,256 L 200,256" fill="none" stroke="black"/>
<path d="M 136,288 L 240,288" fill="none" stroke="black"/>
<path d="M 256,288 L 264,288" fill="none" stroke="black"/>
<path d="M 280,288 L 288,288" fill="none" stroke="black"/>
<path d="M 176,304 L 232,304" fill="none" stroke="black"/>
<path d="M 232,304 L 272,304" fill="none" stroke="black"/>
<path d="M 272,304 L 288,304" fill="none" stroke="black"/>
<path d="M 96,336 L 112,336" fill="none" stroke="black"/>
<path d="M 176,368 L 216,368" fill="none" stroke="black"/>
<path d="M 216,368 L 232,368" fill="none" stroke="black"/>
<path d="M 232,368 L 248,368" fill="none" stroke="black"/>
<path d="M 248,368 L 288,368" fill="none" stroke="black"/>
<path d="M 136,384 L 184,384" fill="none" stroke="black"/>
<path d="M 200,384 L 208,384" fill="none" stroke="black"/>
<path d="M 224,384 L 240,384" fill="none" stroke="black"/>
<path d="M 256,384 L 264,384" fill="none" stroke="black"/>
<path d="M 280,384 L 288,384" fill="none" stroke="black"/>
<path d="M 136,464 L 184,464" fill="none" stroke="black"/>
<path d="M 200,464 L 208,464" fill="none" stroke="black"/>
<path d="M 224,464 L 240,464" fill="none" stroke="black"/>
<path d="M 256,464 L 264,464" fill="none" stroke="black"/>
<path d="M 280,464 L 344,464" fill="none" stroke="black"/>
<path d="M 176,480 L 192,480" fill="none" stroke="black"/>
<path d="M 192,480 L 232,480" fill="none" stroke="black"/>
<path d="M 232,480 L 272,480" fill="none" stroke="black"/>
<path d="M 272,480 L 288,480" fill="none" stroke="black"/>
<path d="M 288,480 L 344,480" fill="none" stroke="black"/>
<path d="M 344,496 L 440,496" fill="none" stroke="black"/>
<path d="M 352,528 L 464,528" fill="none" stroke="black"/>
<path d="M 176,544 L 232,544" fill="none" stroke="black"/>
<path d="M 232,544 L 288,544" fill="none" stroke="black"/>
<path d="M 288,544 L 344,544" fill="none" stroke="black"/>
<path d="M 136,560 L 344,560" fill="none" stroke="black"/>
<path d="M 0,144 L 0,256" fill="none" stroke="black"/>
<path d="M 16,144 L 16,176" fill="none" stroke="black"/>
<path d="M 16,208 L 16,240" fill="none" stroke="black"/>
<path d="M 80,64 L 80,128" fill="none" stroke="black"/>
<path d="M 80,256 L 80,320" fill="none" stroke="black"/>
<path d="M 120,304 L 120,368" fill="none" stroke="black"/>
<path d="M 120,480 L 120,544" fill="none" stroke="black"/>
<path d="M 136,144 L 136,176" fill="none" stroke="black"/>
<path d="M 160,16 L 160,48" fill="none" stroke="black"/>
<path d="M 160,48 L 160,80" fill="none" stroke="black"/>
<path d="M 176,304 L 176,368" fill="none" stroke="black"/>
<path d="M 176,480 L 176,544" fill="none" stroke="black"/>
<path d="M 192,208 L 192,240" fill="none" stroke="black"/>
<path d="M 192,384 L 192,416" fill="none" stroke="black"/>
<path d="M 192,448 L 192,480" fill="none" stroke="black"/>
<path d="M 216,16 L 216,80" fill="none" stroke="black"/>
<path d="M 216,128 L 216,240" fill="none" stroke="black"/>
<path d="M 216,368 L 216,400" fill="none" stroke="black"/>
<path d="M 216,432 L 216,464" fill="none" stroke="black"/>
<path d="M 232,304 L 232,368" fill="none" stroke="black"/>
<path d="M 232,480 L 232,544" fill="none" stroke="black"/>
<path d="M 248,80 L 248,144" fill="none" stroke="black"/>
<path d="M 248,176 L 248,288" fill="none" stroke="black"/>
<path d="M 248,368 L 248,400" fill="none" stroke="black"/>
<path d="M 248,432 L 248,464" fill="none" stroke="black"/>
<path d="M 272,16 L 272,80" fill="none" stroke="black"/>
<path d="M 272,288 L 272,304" fill="none" stroke="black"/>
<path d="M 272,384 L 272,416" fill="none" stroke="black"/>
<path d="M 272,448 L 272,480" fill="none" stroke="black"/>
<path d="M 288,304 L 288,368" fill="none" stroke="black"/>
<path d="M 288,480 L 288,544" fill="none" stroke="black"/>
<path d="M 296,96 L 296,192" fill="none" stroke="black"/>
<path d="M 296,224 L 296,240" fill="none" stroke="black"/>
<path d="M 304,304 L 304,368" fill="none" stroke="black"/>
<path d="M 328,16 L 328,64" fill="none" stroke="black"/>
<path d="M 328,64 L 328,80" fill="none" stroke="black"/>
<path d="M 344,40 L 344,56" fill="none" stroke="black"/>
<path d="M 344,480 L 344,496" fill="none" stroke="black"/>
<path d="M 344,496 L 344,544" fill="none" stroke="black"/>
<path d="M 360,504 L 360,520" fill="none" stroke="black"/>
<path d="M 384,112 L 384,144" fill="none" stroke="black"/>
<path d="M 424,176 L 424,224" fill="none" stroke="black"/>
<path d="M 440,144 L 440,192" fill="none" stroke="black"/>
<path d="M 440,192 L 440,224" fill="none" stroke="black"/>
<path d="M 456,48 L 456,80" fill="none" stroke="black"/>
<path d="M 456,112 L 456,144" fill="none" stroke="black"/>
<path d="M 456,240 L 456,432" fill="none" stroke="black"/>
<path d="M 456,464 L 456,480" fill="none" stroke="black"/>
<path d="M 480,224 L 480,288" fill="none" stroke="black"/>
<path d="M 480,320 L 480,512" fill="none" stroke="black"/>
<path d="M 496,144 L 496,224" fill="none" stroke="black"/>
<path d="M 528,144 L 528,224" fill="none" stroke="black"/>
<path d="M 272,288 L 296,240" fill="none" stroke="black"/>
<path d="M 344,16 L 344,24" fill="none" stroke="black"/>
<path d="M 344,40 L 344,48" fill="none" stroke="black"/>
<path d="M 344,72 L 344,80" fill="none" stroke="black"/>
<path d="M 360,480 L 360,488" fill="none" stroke="black"/>
<path d="M 360,504 L 360,512" fill="none" stroke="black"/>
<path d="M 360,536 L 360,544" fill="none" stroke="black"/>
<path d="M 424,144 L 424,152" fill="none" stroke="black"/>
<path d="M 424,168 L 424,176" fill="none" stroke="black"/>
<polygon points="120.000000,336.000000 108.000000,330.399994 108.000000,341.600006" transform="rotate(0.000000, 112.000000, 336.000000)" fill="black"/>
<path d="M 192,376 L 192,384" fill="none" stroke="black"/>
<polygon points="208.000000,384.000000 196.000000,378.399994 196.000000,389.600006" transform="rotate(270.000000, 192.000000, 384.000000)" fill="black"/>
<path d="M 216,464 L 216,472" fill="none" stroke="black"/>
<polygon points="232.000000,464.000000 220.000000,458.399994 220.000000,469.600006" transform="rotate(90.000000, 216.000000, 464.000000)" fill="black"/>
<path d="M 248,288 L 248,296" fill="none" stroke="black"/>
<polygon points="264.000000,288.000000 252.000000,282.399994 252.000000,293.600006" transform="rotate(90.000000, 248.000000, 288.000000)" fill="black"/>
<path d="M 248,464 L 248,472" fill="none" stroke="black"/>
<polygon points="264.000000,464.000000 252.000000,458.399994 252.000000,469.600006" transform="rotate(90.000000, 248.000000, 464.000000)" fill="black"/>
<path d="M 272,376 L 272,384" fill="none" stroke="black"/>
<polygon points="288.000000,384.000000 276.000000,378.399994 276.000000,389.600006" transform="rotate(270.000000, 272.000000, 384.000000)" fill="black"/>
<path d="M 296,88 L 296,96" fill="none" stroke="black"/>
<polygon points="312.000000,96.000000 300.000000,90.400002 300.000000,101.599998" transform="rotate(270.000000, 296.000000, 96.000000)" fill="black"/>
<polygon points="344.000000,32.000000 332.000000,26.400000 332.000000,37.599998" transform="rotate(180.000000, 336.000000, 32.000000)" fill="black"/>
<polygon points="360.000000,528.000000 348.000000,522.400024 348.000000,533.599976" transform="rotate(180.000000, 352.000000, 528.000000)" fill="black"/>
<polygon points="440.000000,160.000000 428.000000,154.399994 428.000000,165.600006" transform="rotate(0.000000, 432.000000, 160.000000)" fill="black"/>
<path d="M 456,232 L 456,240" fill="none" stroke="black"/>
<polygon points="472.000000,240.000000 460.000000,234.399994 460.000000,245.600006" transform="rotate(270.000000, 456.000000, 240.000000)" fill="black"/>
<path d="M 176,0 A 16,16 0 0,0 160,16" fill="none" stroke="black"/>
<path d="M 328,0 A 16,16 0 0,1 344,16" fill="none" stroke="black"/>
<path d="M 440,32 A 16,16 0 0,1 456,48" fill="none" stroke="black"/>
<path d="M 96,48 A 16,16 0 0,0 80,64" fill="none" stroke="black"/>
<path d="M 368,64 A 16,16 0 0,1 384,80" fill="none" stroke="black"/>
<path d="M 160,80 A 16,16 0 0,0 176,96" fill="none" stroke="black"/>
<path d="M 344,80 A 16,16 0 0,1 328,96" fill="none" stroke="black"/>
<path d="M 16,128 A 16,16 0 0,0 0,144" fill="none" stroke="black"/>
<path d="M 440,128 A 16,16 0 0,0 424,144" fill="none" stroke="black"/>
<path d="M 512,128 A 16,16 0 0,1 528,144" fill="none" stroke="black"/>
<path d="M 384,144 A 16,16 0 0,0 400,160" fill="none" stroke="black"/>
<path d="M 424,224 A 16,16 0 0,0 440,240" fill="none" stroke="black"/>
<path d="M 528,224 A 16,16 0 0,1 512,240" fill="none" stroke="black"/>
<path d="M 216,240 A 16,16 0 0,1 200,256" fill="none" stroke="black"/>
<path d="M 136,288 A 16,16 0 0,0 120,304" fill="none" stroke="black"/>
<path d="M 288,288 A 16,16 0 0,1 304,304" fill="none" stroke="black"/>
<path d="M 80,320 A 16,16 0 0,0 96,336" fill="none" stroke="black"/>
<path d="M 120,368 A 16,16 0 0,0 136,384" fill="none" stroke="black"/>
<path d="M 304,368 A 16,16 0 0,1 288,384" fill="none" stroke="black"/>
<path d="M 136,464 A 16,16 0 0,0 120,480" fill="none" stroke="black"/>
<path d="M 344,464 A 16,16 0 0,1 360,480" fill="none" stroke="black"/>
<path d="M 456,480 A 16,16 0 0,1 440,496" fill="none" stroke="black"/>
<path d="M 480,512 A 16,16 0 0,1 464,528" fill="none" stroke="black"/>
<path d="M 120,544 A 16,16 0 0,0 136,560" fill="none" stroke="black"/>
<path d="M 360,544 A 16,16 0 0,1 344,560" fill="none" stroke="black"/>
<text text-anchor="middle" font-family="monospace" x="240" y="52" fill="black" font-size="1em">e</text>
<text text-anchor="middle" font-family="monospace" x="288" y="68" fill="black" font-size="1em">f</text>
<text text-anchor="middle" font-family="monospace" x="72" y="228" fill="black" font-size="1em">A</text>
<text text-anchor="middle" font-family="monospace" x="264" y="340" fill="black" font-size="1em">l</text>
<text text-anchor="middle" font-family="monospace" x="200" y="516" fill="black" font-size="1em">D</text>
<text text-anchor="middle" font-family="monospace" x="312" y="516" fill="black" font-size="1em">T</text>
<text text-anchor="middle" font-family="monospace" x="144" y="196" fill="black" font-size="1em">x</text>
<text text-anchor="middle" font-family="monospace" x="152" y="196" fill="black" font-size="1em">a</text>
<text text-anchor="middle" font-family="monospace" x="216" y="340" fill="black" font-size="1em">I</text>
<text text-anchor="middle" font-family="monospace" x="248" y="340" fill="black" font-size="1em">d</text>
<text text-anchor="middle" font-family="monospace" x="248" y="500" fill="black" font-size="1em">S</text>
<text text-anchor="middle" font-family="monospace" x="264" y="532" fill="black" font-size="1em">i</text>
<text text-anchor="middle" font-family="monospace" x="472" y="164" fill="black" font-size="1em">M</text>
<text text-anchor="middle" font-family="monospace" x="464" y="212" fill="black" font-size="1em">T</text>
<text text-anchor="middle" font-family="monospace" x="168" y="228" fill="black" font-size="1em">i</text>
<text text-anchor="middle" font-family="monospace" x="136" y="516" fill="black" font-size="1em">d</text>
<text text-anchor="middle" font-family="monospace" x="32" y="164" fill="black" font-size="1em">C</text>
<text text-anchor="middle" font-family="monospace" x="112" y="196" fill="black" font-size="1em">c</text>
<text text-anchor="middle" font-family="monospace" x="256" y="356" fill="black" font-size="1em">w</text>
<text text-anchor="middle" font-family="monospace" x="232" y="36" fill="black" font-size="1em">S</text>
<text text-anchor="middle" font-family="monospace" x="240" y="36" fill="black" font-size="1em">T</text>
<text text-anchor="middle" font-family="monospace" x="112" y="164" fill="black" font-size="1em">t</text>
<text text-anchor="middle" font-family="monospace" x="48" y="196" fill="black" font-size="1em">:</text>
<text text-anchor="middle" font-family="monospace" x="160" y="228" fill="black" font-size="1em">f</text>
<text text-anchor="middle" font-family="monospace" x="160" y="516" fill="black" font-size="1em">N</text>
<text text-anchor="middle" font-family="monospace" x="480" y="212" fill="black" font-size="1em">P</text>
<text text-anchor="middle" font-family="monospace" x="32" y="228" fill="black" font-size="1em">C</text>
<text text-anchor="middle" font-family="monospace" x="56" y="228" fill="black" font-size="1em">S</text>
<text text-anchor="middle" font-family="monospace" x="80" y="228" fill="black" font-size="1em">R</text>
<text text-anchor="middle" font-family="monospace" x="272" y="516" fill="black" font-size="1em">e</text>
<text text-anchor="middle" font-family="monospace" x="192" y="52" fill="black" font-size="1em">P</text>
<text text-anchor="middle" font-family="monospace" x="168" y="196" fill="black" font-size="1em">p</text>
<text text-anchor="middle" font-family="monospace" x="256" y="36" fill="black" font-size="1em">R</text>
<text text-anchor="middle" font-family="monospace" x="120" y="228" fill="black" font-size="1em">e</text>
<text text-anchor="middle" font-family="monospace" x="160" y="340" fill="black" font-size="1em">N</text>
<text text-anchor="middle" font-family="monospace" x="208" y="340" fill="black" font-size="1em">N</text>
<text text-anchor="middle" font-family="monospace" x="328" y="516" fill="black" font-size="1em">P</text>
<text text-anchor="middle" font-family="monospace" x="480" y="180" fill="black" font-size="1em">R</text>
<text text-anchor="middle" font-family="monospace" x="136" y="340" fill="black" font-size="1em">u</text>
<text text-anchor="middle" font-family="monospace" x="192" y="340" fill="black" font-size="1em">C</text>
<text text-anchor="middle" font-family="monospace" x="288" y="36" fill="black" font-size="1em">S</text>
<text text-anchor="middle" font-family="monospace" x="64" y="164" fill="black" font-size="1em">t</text>
<text text-anchor="middle" font-family="monospace" x="40" y="228" fill="black" font-size="1em">P</text>
<text text-anchor="middle" font-family="monospace" x="152" y="228" fill="black" font-size="1em">n</text>
<text text-anchor="middle" font-family="monospace" x="256" y="52" fill="black" font-size="1em">e</text>
<text text-anchor="middle" font-family="monospace" x="184" y="196" fill="black" font-size="1em">e</text>
<text text-anchor="middle" font-family="monospace" x="136" y="228" fill="black" font-size="1em">c</text>
<text text-anchor="middle" font-family="monospace" x="152" y="516" fill="black" font-size="1em">D</text>
<text text-anchor="middle" font-family="monospace" x="304" y="516" fill="black" font-size="1em">H</text>
<text text-anchor="middle" font-family="monospace" x="232" y="52" fill="black" font-size="1em">d</text>
<text text-anchor="middle" font-family="monospace" x="304" y="68" fill="black" font-size="1em">d</text>
<text text-anchor="middle" font-family="monospace" x="160" y="196" fill="black" font-size="1em">m</text>
<text text-anchor="middle" font-family="monospace" x="248" y="532" fill="black" font-size="1em">c</text>
<text text-anchor="middle" font-family="monospace" x="296" y="36" fill="black" font-size="1em">T</text>
<text text-anchor="middle" font-family="monospace" x="288" y="52" fill="black" font-size="1em">d</text>
<text text-anchor="middle" font-family="monospace" x="384" y="100" fill="black" font-size="1em">4</text>
<text text-anchor="middle" font-family="monospace" x="248" y="164" fill="black" font-size="1em">6</text>
<text text-anchor="middle" font-family="monospace" x="40" y="196" fill="black" font-size="1em">N</text>
<text text-anchor="middle" font-family="monospace" x="216" y="420" fill="black" font-size="1em">1</text>
<text text-anchor="middle" font-family="monospace" x="264" y="516" fill="black" font-size="1em">l</text>
<text text-anchor="middle" font-family="monospace" x="72" y="196" fill="black" font-size="1em">i</text>
<text text-anchor="middle" font-family="monospace" x="80" y="196" fill="black" font-size="1em">d</text>
<text text-anchor="middle" font-family="monospace" x="512" y="196" fill="black" font-size="1em">A</text>
<text text-anchor="middle" font-family="monospace" x="248" y="36" fill="black" font-size="1em">A</text>
<text text-anchor="middle" font-family="monospace" x="272" y="436" fill="black" font-size="1em">2</text>
<text text-anchor="middle" font-family="monospace" x="144" y="516" fill="black" font-size="1em">C</text>
<text text-anchor="middle" font-family="monospace" x="304" y="36" fill="black" font-size="1em">A</text>
<text text-anchor="middle" font-family="monospace" x="184" y="52" fill="black" font-size="1em">C</text>
<text text-anchor="middle" font-family="monospace" x="296" y="52" fill="black" font-size="1em">e</text>
<text text-anchor="middle" font-family="monospace" x="472" y="180" fill="black" font-size="1em">A</text>
<text text-anchor="middle" font-family="monospace" x="512" y="180" fill="black" font-size="1em">C</text>
<text text-anchor="middle" font-family="monospace" x="128" y="196" fill="black" font-size="1em">.</text>
<text text-anchor="middle" font-family="monospace" x="144" y="228" fill="black" font-size="1em">o</text>
<text text-anchor="middle" font-family="monospace" x="144" y="340" fill="black" font-size="1em">C</text>
<text text-anchor="middle" font-family="monospace" x="456" y="100" fill="black" font-size="1em">5</text>
<text text-anchor="middle" font-family="monospace" x="40" y="164" fill="black" font-size="1em">S</text>
<text text-anchor="middle" font-family="monospace" x="96" y="164" fill="black" font-size="1em">l</text>
<text text-anchor="middle" font-family="monospace" x="480" y="164" fill="black" font-size="1em">E</text>
<text text-anchor="middle" font-family="monospace" x="456" y="180" fill="black" font-size="1em">S</text>
<text text-anchor="middle" font-family="monospace" x="464" y="180" fill="black" font-size="1em">T</text>
<text text-anchor="middle" font-family="monospace" x="248" y="324" fill="black" font-size="1em">S</text>
<text text-anchor="middle" font-family="monospace" x="192" y="436" fill="black" font-size="1em">0</text>
<text text-anchor="middle" font-family="monospace" x="256" y="516" fill="black" font-size="1em">e</text>
<text text-anchor="middle" font-family="monospace" x="296" y="68" fill="black" font-size="1em">w</text>
<text text-anchor="middle" font-family="monospace" x="104" y="164" fill="black" font-size="1em">a</text>
<text text-anchor="middle" font-family="monospace" x="120" y="164" fill="black" font-size="1em">e</text>
<text text-anchor="middle" font-family="monospace" x="464" y="164" fill="black" font-size="1em">C</text>
<text text-anchor="middle" font-family="monospace" x="64" y="196" fill="black" font-size="1em">v</text>
<text text-anchor="middle" font-family="monospace" x="256" y="340" fill="black" font-size="1em">e</text>
<text text-anchor="middle" font-family="monospace" x="272" y="340" fill="black" font-size="1em">e</text>
<text text-anchor="middle" font-family="monospace" x="176" y="228" fill="black" font-size="1em">g</text>
<text text-anchor="middle" font-family="monospace" x="248" y="420" fill="black" font-size="1em">7</text>
<text text-anchor="middle" font-family="monospace" x="272" y="500" fill="black" font-size="1em">R</text>
<text text-anchor="middle" font-family="monospace" x="456" y="164" fill="black" font-size="1em">A</text>
<text text-anchor="middle" font-family="monospace" x="88" y="196" fill="black" font-size="1em">e</text>
<text text-anchor="middle" font-family="monospace" x="136" y="196" fill="black" font-size="1em">e</text>
<text text-anchor="middle" font-family="monospace" x="472" y="212" fill="black" font-size="1em">T</text>
<text text-anchor="middle" font-family="monospace" x="96" y="228" fill="black" font-size="1em">d</text>
<text text-anchor="middle" font-family="monospace" x="272" y="324" fill="black" font-size="1em">R</text>
<text text-anchor="middle" font-family="monospace" x="456" y="452" fill="black" font-size="1em">8</text>
<text text-anchor="middle" font-family="monospace" x="80" y="164" fill="black" font-size="1em">m</text>
<text text-anchor="middle" font-family="monospace" x="24" y="196" fill="black" font-size="1em">S</text>
<text text-anchor="middle" font-family="monospace" x="480" y="308" fill="black" font-size="1em">9</text>
<text text-anchor="middle" font-family="monospace" x="248" y="356" fill="black" font-size="1em">f</text>
<text text-anchor="middle" font-family="monospace" x="264" y="500" fill="black" font-size="1em">A</text>
<text text-anchor="middle" font-family="monospace" x="232" y="68" fill="black" font-size="1em">s</text>
<text text-anchor="middle" font-family="monospace" x="104" y="196" fill="black" font-size="1em">.</text>
<text text-anchor="middle" font-family="monospace" x="256" y="324" fill="black" font-size="1em">T</text>
<text text-anchor="middle" font-family="monospace" x="256" y="532" fill="black" font-size="1em">l</text>
<text text-anchor="middle" font-family="monospace" x="240" y="68" fill="black" font-size="1em">r</text>
<text text-anchor="middle" font-family="monospace" x="72" y="164" fill="black" font-size="1em">e</text>
<text text-anchor="middle" font-family="monospace" x="248" y="52" fill="black" font-size="1em">l</text>
<text text-anchor="middle" font-family="monospace" x="312" y="52" fill="black" font-size="1em">e</text>
<text text-anchor="middle" font-family="monospace" x="248" y="68" fill="black" font-size="1em">v</text>
<text text-anchor="middle" font-family="monospace" x="112" y="228" fill="black" font-size="1em">l</text>
<text text-anchor="middle" font-family="monospace" x="200" y="340" fill="black" font-size="1em">D</text>
<text text-anchor="middle" font-family="monospace" x="192" y="516" fill="black" font-size="1em">C</text>
<text text-anchor="middle" font-family="monospace" x="248" y="516" fill="black" font-size="1em">d</text>
<text text-anchor="middle" font-family="monospace" x="176" y="196" fill="black" font-size="1em">l</text>
<text text-anchor="middle" font-family="monospace" x="296" y="212" fill="black" font-size="1em">3</text>
<text text-anchor="middle" font-family="monospace" x="64" y="228" fill="black" font-size="1em">T</text>
<text text-anchor="middle" font-family="monospace" x="152" y="340" fill="black" font-size="1em">D</text>
<text text-anchor="middle" font-family="monospace" x="256" y="500" fill="black" font-size="1em">T</text>
<text text-anchor="middle" font-family="monospace" x="320" y="516" fill="black" font-size="1em">T</text>
<text text-anchor="middle" font-family="monospace" x="304" y="52" fill="black" font-size="1em">l</text>
<text text-anchor="middle" font-family="monospace" x="264" y="324" fill="black" font-size="1em">A</text>
<text text-anchor="middle" font-family="monospace" x="88" y="164" fill="black" font-size="1em">p</text>
<text text-anchor="middle" font-family="monospace" x="120" y="196" fill="black" font-size="1em">p</text>
<text text-anchor="middle" font-family="monospace" x="456" y="212" fill="black" font-size="1em">H</text>
<text text-anchor="middle" font-family="monospace" x="104" y="228" fill="black" font-size="1em">e</text>
<text text-anchor="middle" font-family="monospace" x="208" y="516" fill="black" font-size="1em">N</text>
<text text-anchor="middle" font-family="monospace" x="312" y="36" fill="black" font-size="1em">R</text>
<text text-anchor="middle" font-family="monospace" x="32" y="196" fill="black" font-size="1em">A</text>
<text text-anchor="middle" font-family="monospace" x="264" y="356" fill="black" font-size="1em">d</text>
<text text-anchor="middle" font-family="monospace" x="216" y="516" fill="black" font-size="1em">I</text>
<text text-anchor="middle" font-family="monospace" x="48" y="164" fill="black" font-size="1em">R</text>
<text text-anchor="middle" font-family="monospace" x="96" y="196" fill="black" font-size="1em">o</text>
</g>
</svg>
