<?xml version='1.0' encoding='utf-8'?>
<svg xmlns="http://www.w3.org/2000/svg" class="diagram" version="1.1" height="537" width="464" viewBox="0 0 464.0 537.0">
<g transform="translate(8,16)">
<path d="M 96,0 L 248,0" fill="none" stroke="black"/>
<path d="M 136,16 L 192,16" fill="none" stroke="black"/>
<path d="M 192,16 L 248,16" fill="none" stroke="black"/>
<path d="M 256,32 L 360,32" fill="none" stroke="black"/>
<path d="M 16,48 L 72,48" fill="none" stroke="black"/>
<path d="M 248,64 L 288,64" fill="none" stroke="black"/>
<path d="M 136,80 L 168,80" fill="none" stroke="black"/>
<path d="M 168,80 L 192,80" fill="none" stroke="black"/>
<path d="M 192,80 L 248,80" fill="none" stroke="black"/>
<path d="M 96,96 L 160,96" fill="none" stroke="black"/>
<path d="M 176,96 L 216,96" fill="none" stroke="black"/>
<path d="M 232,96 L 248,96" fill="none" stroke="black"/>
<path d="M 360,112 L 368,112" fill="none" stroke="black"/>
<path d="M 384,112 L 432,112" fill="none" stroke="black"/>
<path d="M 360,128 L 376,128" fill="none" stroke="black"/>
<path d="M 376,128 L 416,128" fill="none" stroke="black"/>
<path d="M 320,144 L 352,144" fill="none" stroke="black"/>
<path d="M 360,176 L 408,176" fill="none" stroke="black"/>
<path d="M 360,208 L 400,208" fill="none" stroke="black"/>
<path d="M 400,208 L 416,208" fill="none" stroke="black"/>
<path d="M 360,224 L 368,224" fill="none" stroke="black"/>
<path d="M 384,224 L 392,224" fill="none" stroke="black"/>
<path d="M 408,224 L 432,224" fill="none" stroke="black"/>
<path d="M 56,240 L 160,240" fill="none" stroke="black"/>
<path d="M 176,240 L 184,240" fill="none" stroke="black"/>
<path d="M 200,240 L 208,240" fill="none" stroke="black"/>
<path d="M 96,256 L 152,256" fill="none" stroke="black"/>
<path d="M 152,256 L 192,256" fill="none" stroke="black"/>
<path d="M 192,256 L 208,256" fill="none" stroke="black"/>
<path d="M 16,288 L 32,288" fill="none" stroke="black"/>
<path d="M 96,320 L 136,320" fill="none" stroke="black"/>
<path d="M 136,320 L 152,320" fill="none" stroke="black"/>
<path d="M 152,320 L 168,320" fill="none" stroke="black"/>
<path d="M 168,320 L 208,320" fill="none" stroke="black"/>
<path d="M 56,336 L 104,336" fill="none" stroke="black"/>
<path d="M 120,336 L 128,336" fill="none" stroke="black"/>
<path d="M 144,336 L 160,336" fill="none" stroke="black"/>
<path d="M 176,336 L 184,336" fill="none" stroke="black"/>
<path d="M 200,336 L 208,336" fill="none" stroke="black"/>
<path d="M 56,416 L 104,416" fill="none" stroke="black"/>
<path d="M 120,416 L 128,416" fill="none" stroke="black"/>
<path d="M 144,416 L 160,416" fill="none" stroke="black"/>
<path d="M 176,416 L 184,416" fill="none" stroke="black"/>
<path d="M 200,416 L 264,416" fill="none" stroke="black"/>
<path d="M 96,432 L 112,432" fill="none" stroke="black"/>
<path d="M 112,432 L 152,432" fill="none" stroke="black"/>
<path d="M 152,432 L 192,432" fill="none" stroke="black"/>
<path d="M 192,432 L 208,432" fill="none" stroke="black"/>
<path d="M 208,432 L 264,432" fill="none" stroke="black"/>
<path d="M 264,448 L 360,448" fill="none" stroke="black"/>
<path d="M 272,480 L 384,480" fill="none" stroke="black"/>
<path d="M 96,496 L 152,496" fill="none" stroke="black"/>
<path d="M 152,496 L 208,496" fill="none" stroke="black"/>
<path d="M 208,496 L 264,496" fill="none" stroke="black"/>
<path d="M 56,512 L 264,512" fill="none" stroke="black"/>
<path d="M 0,64 L 0,160" fill="none" stroke="black"/>
<path d="M 0,192 L 0,272" fill="none" stroke="black"/>
<path d="M 40,256 L 40,320" fill="none" stroke="black"/>
<path d="M 40,432 L 40,496" fill="none" stroke="black"/>
<path d="M 80,16 L 80,80" fill="none" stroke="black"/>
<path d="M 96,256 L 96,320" fill="none" stroke="black"/>
<path d="M 96,432 L 96,496" fill="none" stroke="black"/>
<path d="M 112,336 L 112,368" fill="none" stroke="black"/>
<path d="M 112,400 L 112,432" fill="none" stroke="black"/>
<path d="M 136,16 L 136,80" fill="none" stroke="black"/>
<path d="M 136,320 L 136,352" fill="none" stroke="black"/>
<path d="M 136,384 L 136,416" fill="none" stroke="black"/>
<path d="M 152,256 L 152,320" fill="none" stroke="black"/>
<path d="M 152,432 L 152,496" fill="none" stroke="black"/>
<path d="M 168,80 L 168,128" fill="none" stroke="black"/>
<path d="M 168,160 L 168,240" fill="none" stroke="black"/>
<path d="M 168,320 L 168,352" fill="none" stroke="black"/>
<path d="M 168,384 L 168,416" fill="none" stroke="black"/>
<path d="M 192,16 L 192,80" fill="none" stroke="black"/>
<path d="M 192,240 L 192,256" fill="none" stroke="black"/>
<path d="M 192,336 L 192,368" fill="none" stroke="black"/>
<path d="M 192,400 L 192,432" fill="none" stroke="black"/>
<path d="M 208,256 L 208,320" fill="none" stroke="black"/>
<path d="M 208,432 L 208,496" fill="none" stroke="black"/>
<path d="M 224,96 L 224,160" fill="none" stroke="black"/>
<path d="M 224,192 L 224,208" fill="none" stroke="black"/>
<path d="M 224,256 L 224,320" fill="none" stroke="black"/>
<path d="M 248,16 L 248,64" fill="none" stroke="black"/>
<path d="M 248,64 L 248,80" fill="none" stroke="black"/>
<path d="M 264,40 L 264,56" fill="none" stroke="black"/>
<path d="M 264,432 L 264,448" fill="none" stroke="black"/>
<path d="M 264,448 L 264,496" fill="none" stroke="black"/>
<path d="M 280,456 L 280,472" fill="none" stroke="black"/>
<path d="M 304,112 L 304,128" fill="none" stroke="black"/>
<path d="M 344,160 L 344,208" fill="none" stroke="black"/>
<path d="M 360,128 L 360,176" fill="none" stroke="black"/>
<path d="M 360,176 L 360,208" fill="none" stroke="black"/>
<path d="M 376,48 L 376,64" fill="none" stroke="black"/>
<path d="M 376,96 L 376,128" fill="none" stroke="black"/>
<path d="M 376,224 L 376,384" fill="none" stroke="black"/>
<path d="M 376,416 L 376,432" fill="none" stroke="black"/>
<path d="M 400,208 L 400,240" fill="none" stroke="black"/>
<path d="M 400,272 L 400,464" fill="none" stroke="black"/>
<path d="M 416,128 L 416,208" fill="none" stroke="black"/>
<path d="M 448,128 L 448,208" fill="none" stroke="black"/>
<path d="M 264,16 L 264,24" fill="none" stroke="black"/>
<path d="M 264,40 L 264,48" fill="none" stroke="black"/>
<path d="M 264,72 L 264,80" fill="none" stroke="black"/>
<path d="M 280,432 L 280,440" fill="none" stroke="black"/>
<path d="M 280,456 L 280,464" fill="none" stroke="black"/>
<path d="M 280,488 L 280,496" fill="none" stroke="black"/>
<path d="M 344,128 L 344,136" fill="none" stroke="black"/>
<path d="M 344,152 L 344,160" fill="none" stroke="black"/>
<polygon points="40.000000,288.000000 28.000000,282.399994 28.000000,293.600006" transform="rotate(0.000000, 32.000000, 288.000000)" fill="black"/>
<polygon points="80.000000,48.000000 68.000000,42.400002 68.000000,53.599998" transform="rotate(0.000000, 72.000000, 48.000000)" fill="black"/>
<path d="M 112,328 L 112,336" fill="none" stroke="black"/>
<polygon points="128.000000,336.000000 116.000000,330.399994 116.000000,341.600006" transform="rotate(270.000000, 112.000000, 336.000000)" fill="black"/>
<path d="M 136,416 L 136,424" fill="none" stroke="black"/>
<polygon points="152.000000,416.000000 140.000000,410.399994 140.000000,421.600006" transform="rotate(90.000000, 136.000000, 416.000000)" fill="black"/>
<path d="M 168,240 L 168,248" fill="none" stroke="black"/>
<polygon points="184.000000,240.000000 172.000000,234.399994 172.000000,245.600006" transform="rotate(90.000000, 168.000000, 240.000000)" fill="black"/>
<path d="M 168,416 L 168,424" fill="none" stroke="black"/>
<polygon points="184.000000,416.000000 172.000000,410.399994 172.000000,421.600006" transform="rotate(90.000000, 168.000000, 416.000000)" fill="black"/>
<path d="M 192,328 L 192,336" fill="none" stroke="black"/>
<polygon points="208.000000,336.000000 196.000000,330.399994 196.000000,341.600006" transform="rotate(270.000000, 192.000000, 336.000000)" fill="black"/>
<path d="M 224,88 L 224,96" fill="none" stroke="black"/>
<polygon points="240.000000,96.000000 228.000000,90.400002 228.000000,101.599998" transform="rotate(270.000000, 224.000000, 96.000000)" fill="black"/>
<polygon points="264.000000,32.000000 252.000000,26.400000 252.000000,37.599998" transform="rotate(180.000000, 256.000000, 32.000000)" fill="black"/>
<polygon points="280.000000,480.000000 268.000000,474.399994 268.000000,485.600006" transform="rotate(180.000000, 272.000000, 480.000000)" fill="black"/>
<polygon points="360.000000,144.000000 348.000000,138.399994 348.000000,149.600006" transform="rotate(0.000000, 352.000000, 144.000000)" fill="black"/>
<path d="M 376,216 L 376,224" fill="none" stroke="black"/>
<polygon points="392.000000,224.000000 380.000000,218.399994 380.000000,229.600006" transform="rotate(270.000000, 376.000000, 224.000000)" fill="black"/>
<path d="M 96,0 A 16,16 0 0,0 80,16" fill="none" stroke="black"/>
<path d="M 248,0 A 16,16 0 0,1 264,16" fill="none" stroke="black"/>
<path d="M 360,32 A 16,16 0 0,1 376,48" fill="none" stroke="black"/>
<path d="M 16,48 A 16,16 0 0,0 0,64" fill="none" stroke="black"/>
<path d="M 288,64 A 16,16 0 0,1 304,80" fill="none" stroke="black"/>
<path d="M 80,80 A 16,16 0 0,0 96,96" fill="none" stroke="black"/>
<path d="M 264,80 A 16,16 0 0,1 248,96" fill="none" stroke="black"/>
<path d="M 360,112 A 16,16 0 0,0 344,128" fill="none" stroke="black"/>
<path d="M 432,112 A 16,16 0 0,1 448,128" fill="none" stroke="black"/>
<path d="M 304,128 A 16,16 0 0,0 320,144" fill="none" stroke="black"/>
<path d="M 208,224 A 16,16 0 0,0 192,240" fill="none" stroke="black"/>
<path d="M 224,208 A 16,16 0 0,1 208,224" fill="none" stroke="black"/>
<path d="M 344,208 A 16,16 0 0,0 360,224" fill="none" stroke="black"/>
<path d="M 448,208 A 16,16 0 0,1 432,224" fill="none" stroke="black"/>
<path d="M 56,240 A 16,16 0 0,0 40,256" fill="none" stroke="black"/>
<path d="M 208,240 A 16,16 0 0,1 224,256" fill="none" stroke="black"/>
<path d="M 0,272 A 16,16 0 0,0 16,288" fill="none" stroke="black"/>
<path d="M 40,320 A 16,16 0 0,0 56,336" fill="none" stroke="black"/>
<path d="M 224,320 A 16,16 0 0,1 208,336" fill="none" stroke="black"/>
<path d="M 56,416 A 16,16 0 0,0 40,432" fill="none" stroke="black"/>
<path d="M 264,416 A 16,16 0 0,1 280,432" fill="none" stroke="black"/>
<path d="M 376,432 A 16,16 0 0,1 360,448" fill="none" stroke="black"/>
<path d="M 400,464 A 16,16 0 0,1 384,480" fill="none" stroke="black"/>
<path d="M 40,496 A 16,16 0 0,0 56,512" fill="none" stroke="black"/>
<path d="M 280,496 A 16,16 0 0,1 264,512" fill="none" stroke="black"/>
<text text-anchor="middle" font-family="monospace" x="184" y="292" fill="black" font-size="1em">l</text>
<text text-anchor="middle" font-family="monospace" x="176" y="452" fill="black" font-size="1em">T</text>
<text text-anchor="middle" font-family="monospace" x="152" y="36" fill="black" font-size="1em">S</text>
<text text-anchor="middle" font-family="monospace" x="216" y="36" fill="black" font-size="1em">C</text>
<text text-anchor="middle" font-family="monospace" x="232" y="36" fill="black" font-size="1em">E</text>
<text text-anchor="middle" font-family="monospace" x="160" y="68" fill="black" font-size="1em">r</text>
<text text-anchor="middle" font-family="monospace" x="168" y="148" fill="black" font-size="1em">7</text>
<text text-anchor="middle" font-family="monospace" x="304" y="100" fill="black" font-size="1em">5</text>
<text text-anchor="middle" font-family="monospace" x="400" y="164" fill="black" font-size="1em">R</text>
<text text-anchor="middle" font-family="monospace" x="184" y="484" fill="black" font-size="1em">i</text>
<text text-anchor="middle" font-family="monospace" x="400" y="260" fill="black" font-size="1em">1</text>
<text text-anchor="middle" font-family="monospace" x="184" y="276" fill="black" font-size="1em">A</text>
<text text-anchor="middle" font-family="monospace" x="112" y="468" fill="black" font-size="1em">C</text>
<text text-anchor="middle" font-family="monospace" x="128" y="468" fill="black" font-size="1em">N</text>
<text text-anchor="middle" font-family="monospace" x="176" y="484" fill="black" font-size="1em">l</text>
<text text-anchor="middle" font-family="monospace" x="192" y="292" fill="black" font-size="1em">e</text>
<text text-anchor="middle" font-family="monospace" x="112" y="388" fill="black" font-size="1em">1</text>
<text text-anchor="middle" font-family="monospace" x="64" y="468" fill="black" font-size="1em">C</text>
<text text-anchor="middle" font-family="monospace" x="176" y="36" fill="black" font-size="1em">R</text>
<text text-anchor="middle" font-family="monospace" x="208" y="36" fill="black" font-size="1em">A</text>
<text text-anchor="middle" font-family="monospace" x="168" y="68" fill="black" font-size="1em">v</text>
<text text-anchor="middle" font-family="monospace" x="400" y="196" fill="black" font-size="1em">P</text>
<text text-anchor="middle" font-family="monospace" x="56" y="292" fill="black" font-size="1em">u</text>
<text text-anchor="middle" font-family="monospace" x="80" y="468" fill="black" font-size="1em">N</text>
<text text-anchor="middle" font-family="monospace" x="248" y="468" fill="black" font-size="1em">P</text>
<text text-anchor="middle" font-family="monospace" x="168" y="484" fill="black" font-size="1em">c</text>
<text text-anchor="middle" font-family="monospace" x="400" y="148" fill="black" font-size="1em">E</text>
<text text-anchor="middle" font-family="monospace" x="384" y="196" fill="black" font-size="1em">T</text>
<text text-anchor="middle" font-family="monospace" x="192" y="276" fill="black" font-size="1em">R</text>
<text text-anchor="middle" font-family="monospace" x="176" y="292" fill="black" font-size="1em">e</text>
<text text-anchor="middle" font-family="monospace" x="376" y="404" fill="black" font-size="1em">9</text>
<text text-anchor="middle" font-family="monospace" x="192" y="452" fill="black" font-size="1em">R</text>
<text text-anchor="middle" font-family="monospace" x="56" y="468" fill="black" font-size="1em">d</text>
<text text-anchor="middle" font-family="monospace" x="160" y="52" fill="black" font-size="1em">e</text>
<text text-anchor="middle" font-family="monospace" x="216" y="68" fill="black" font-size="1em">l</text>
<text text-anchor="middle" font-family="monospace" x="176" y="276" fill="black" font-size="1em">T</text>
<text text-anchor="middle" font-family="monospace" x="64" y="292" fill="black" font-size="1em">C</text>
<text text-anchor="middle" font-family="monospace" x="192" y="388" fill="black" font-size="1em">3</text>
<text text-anchor="middle" font-family="monospace" x="192" y="468" fill="black" font-size="1em">e</text>
<text text-anchor="middle" font-family="monospace" x="104" y="52" fill="black" font-size="1em">C</text>
<text text-anchor="middle" font-family="monospace" x="208" y="68" fill="black" font-size="1em">c</text>
<text text-anchor="middle" font-family="monospace" x="0" y="180" fill="black" font-size="1em">0</text>
<text text-anchor="middle" font-family="monospace" x="408" y="260" fill="black" font-size="1em">0</text>
<text text-anchor="middle" font-family="monospace" x="168" y="308" fill="black" font-size="1em">f</text>
<text text-anchor="middle" font-family="monospace" x="136" y="468" fill="black" font-size="1em">I</text>
<text text-anchor="middle" font-family="monospace" x="432" y="180" fill="black" font-size="1em">A</text>
<text text-anchor="middle" font-family="monospace" x="376" y="196" fill="black" font-size="1em">H</text>
<text text-anchor="middle" font-family="monospace" x="112" y="292" fill="black" font-size="1em">C</text>
<text text-anchor="middle" font-family="monospace" x="184" y="308" fill="black" font-size="1em">d</text>
<text text-anchor="middle" font-family="monospace" x="168" y="452" fill="black" font-size="1em">S</text>
<text text-anchor="middle" font-family="monospace" x="240" y="468" fill="black" font-size="1em">T</text>
<text text-anchor="middle" font-family="monospace" x="152" y="68" fill="black" font-size="1em">s</text>
<text text-anchor="middle" font-family="monospace" x="168" y="372" fill="black" font-size="1em">8</text>
<text text-anchor="middle" font-family="monospace" x="184" y="452" fill="black" font-size="1em">A</text>
<text text-anchor="middle" font-family="monospace" x="168" y="468" fill="black" font-size="1em">d</text>
<text text-anchor="middle" font-family="monospace" x="224" y="468" fill="black" font-size="1em">H</text>
<text text-anchor="middle" font-family="monospace" x="136" y="372" fill="black" font-size="1em">2</text>
<text text-anchor="middle" font-family="monospace" x="168" y="36" fill="black" font-size="1em">A</text>
<text text-anchor="middle" font-family="monospace" x="112" y="52" fill="black" font-size="1em">P</text>
<text text-anchor="middle" font-family="monospace" x="232" y="52" fill="black" font-size="1em">R</text>
<text text-anchor="middle" font-family="monospace" x="432" y="164" fill="black" font-size="1em">C</text>
<text text-anchor="middle" font-family="monospace" x="136" y="292" fill="black" font-size="1em">I</text>
<text text-anchor="middle" font-family="monospace" x="216" y="52" fill="black" font-size="1em">T</text>
<text text-anchor="middle" font-family="monospace" x="384" y="164" fill="black" font-size="1em">T</text>
<text text-anchor="middle" font-family="monospace" x="128" y="292" fill="black" font-size="1em">N</text>
<text text-anchor="middle" font-family="monospace" x="176" y="308" fill="black" font-size="1em">w</text>
<text text-anchor="middle" font-family="monospace" x="72" y="292" fill="black" font-size="1em">D</text>
<text text-anchor="middle" font-family="monospace" x="184" y="468" fill="black" font-size="1em">l</text>
<text text-anchor="middle" font-family="monospace" x="232" y="468" fill="black" font-size="1em">T</text>
<text text-anchor="middle" font-family="monospace" x="160" y="36" fill="black" font-size="1em">T</text>
<text text-anchor="middle" font-family="monospace" x="176" y="52" fill="black" font-size="1em">e</text>
<text text-anchor="middle" font-family="monospace" x="208" y="52" fill="black" font-size="1em">S</text>
<text text-anchor="middle" font-family="monospace" x="392" y="148" fill="black" font-size="1em">M</text>
<text text-anchor="middle" font-family="monospace" x="376" y="164" fill="black" font-size="1em">S</text>
<text text-anchor="middle" font-family="monospace" x="224" y="68" fill="black" font-size="1em">i</text>
<text text-anchor="middle" font-family="monospace" x="376" y="84" fill="black" font-size="1em">6</text>
<text text-anchor="middle" font-family="monospace" x="392" y="196" fill="black" font-size="1em">T</text>
<text text-anchor="middle" font-family="monospace" x="120" y="292" fill="black" font-size="1em">D</text>
<text text-anchor="middle" font-family="monospace" x="176" y="468" fill="black" font-size="1em">e</text>
<text text-anchor="middle" font-family="monospace" x="152" y="52" fill="black" font-size="1em">d</text>
<text text-anchor="middle" font-family="monospace" x="224" y="52" fill="black" font-size="1em">A</text>
<text text-anchor="middle" font-family="monospace" x="168" y="52" fill="black" font-size="1em">l</text>
<text text-anchor="middle" font-family="monospace" x="384" y="148" fill="black" font-size="1em">C</text>
<text text-anchor="middle" font-family="monospace" x="80" y="292" fill="black" font-size="1em">N</text>
<text text-anchor="middle" font-family="monospace" x="120" y="468" fill="black" font-size="1em">D</text>
<text text-anchor="middle" font-family="monospace" x="168" y="292" fill="black" font-size="1em">d</text>
<text text-anchor="middle" font-family="monospace" x="72" y="468" fill="black" font-size="1em">D</text>
<text text-anchor="middle" font-family="monospace" x="224" y="36" fill="black" font-size="1em">M</text>
<text text-anchor="middle" font-family="monospace" x="376" y="148" fill="black" font-size="1em">A</text>
<text text-anchor="middle" font-family="monospace" x="392" y="164" fill="black" font-size="1em">A</text>
<text text-anchor="middle" font-family="monospace" x="224" y="180" fill="black" font-size="1em">4</text>
<text text-anchor="middle" font-family="monospace" x="168" y="276" fill="black" font-size="1em">S</text>
</g>
</svg>
