<?xml version='1.0' encoding='utf-8'?>
<svg xmlns="http://www.w3.org/2000/svg" class="diagram" version="1.1" height="473" width="520" viewBox="0 0 520.0 473.0">
<g transform="translate(8,16)">
<path d="M 400,0 L 488,0" fill="none" stroke="black"/>
<path d="M 400,16 L 448,16" fill="none" stroke="black"/>
<path d="M 120,32 L 392,32" fill="none" stroke="black"/>
<path d="M 152,64 L 400,64" fill="none" stroke="black"/>
<path d="M 400,80 L 448,80" fill="none" stroke="black"/>
<path d="M 400,96 L 488,96" fill="none" stroke="black"/>
<path d="M 16,144 L 96,144" fill="none" stroke="black"/>
<path d="M 112,144 L 128,144" fill="none" stroke="black"/>
<path d="M 144,144 L 152,144" fill="none" stroke="black"/>
<path d="M 400,144 L 488,144" fill="none" stroke="black"/>
<path d="M 40,160 L 88,160" fill="none" stroke="black"/>
<path d="M 88,160 L 104,160" fill="none" stroke="black"/>
<path d="M 104,160 L 152,160" fill="none" stroke="black"/>
<path d="M 400,160 L 448,160" fill="none" stroke="black"/>
<path d="M 152,176 L 392,176" fill="none" stroke="black"/>
<path d="M 160,208 L 400,208" fill="none" stroke="black"/>
<path d="M 40,224 L 64,224" fill="none" stroke="black"/>
<path d="M 64,224 L 88,224" fill="none" stroke="black"/>
<path d="M 88,224 L 136,224" fill="none" stroke="black"/>
<path d="M 136,224 L 152,224" fill="none" stroke="black"/>
<path d="M 400,224 L 448,224" fill="none" stroke="black"/>
<path d="M 16,240 L 56,240" fill="none" stroke="black"/>
<path d="M 72,240 L 96,240" fill="none" stroke="black"/>
<path d="M 112,240 L 128,240" fill="none" stroke="black"/>
<path d="M 144,240 L 152,240" fill="none" stroke="black"/>
<path d="M 400,240 L 488,240" fill="none" stroke="black"/>
<path d="M 400,288 L 488,288" fill="none" stroke="black"/>
<path d="M 400,304 L 448,304" fill="none" stroke="black"/>
<path d="M 152,320 L 392,320" fill="none" stroke="black"/>
<path d="M 120,352 L 400,352" fill="none" stroke="black"/>
<path d="M 400,368 L 448,368" fill="none" stroke="black"/>
<path d="M 80,400 L 392,400" fill="none" stroke="black"/>
<path d="M 400,432 L 448,432" fill="none" stroke="black"/>
<path d="M 400,448 L 488,448" fill="none" stroke="black"/>
<path d="M 0,160 L 0,224" fill="none" stroke="black"/>
<path d="M 40,160 L 40,224" fill="none" stroke="black"/>
<path d="M 64,224 L 64,384" fill="none" stroke="black"/>
<path d="M 88,160 L 88,224" fill="none" stroke="black"/>
<path d="M 104,48 L 104,160" fill="none" stroke="black"/>
<path d="M 104,240 L 104,336" fill="none" stroke="black"/>
<path d="M 136,80 L 136,144" fill="none" stroke="black"/>
<path d="M 136,224 L 136,304" fill="none" stroke="black"/>
<path d="M 152,160 L 152,176" fill="none" stroke="black"/>
<path d="M 152,176 L 152,224" fill="none" stroke="black"/>
<path d="M 168,184 L 168,200" fill="none" stroke="black"/>
<path d="M 384,40 L 384,56" fill="none" stroke="black"/>
<path d="M 384,184 L 384,200" fill="none" stroke="black"/>
<path d="M 384,328 L 384,344" fill="none" stroke="black"/>
<path d="M 384,368 L 384,384" fill="none" stroke="black"/>
<path d="M 384,416 L 384,432" fill="none" stroke="black"/>
<path d="M 400,16 L 400,64" fill="none" stroke="black"/>
<path d="M 400,64 L 400,80" fill="none" stroke="black"/>
<path d="M 400,160 L 400,208" fill="none" stroke="black"/>
<path d="M 400,208 L 400,224" fill="none" stroke="black"/>
<path d="M 400,304 L 400,352" fill="none" stroke="black"/>
<path d="M 400,352 L 400,368" fill="none" stroke="black"/>
<path d="M 400,368 L 400,432" fill="none" stroke="black"/>
<path d="M 448,16 L 448,80" fill="none" stroke="black"/>
<path d="M 448,160 L 448,224" fill="none" stroke="black"/>
<path d="M 448,304 L 448,368" fill="none" stroke="black"/>
<path d="M 448,368 L 448,432" fill="none" stroke="black"/>
<path d="M 504,16 L 504,80" fill="none" stroke="black"/>
<path d="M 504,160 L 504,224" fill="none" stroke="black"/>
<path d="M 504,304 L 504,432" fill="none" stroke="black"/>
<path d="M 168,160 L 168,168" fill="none" stroke="black"/>
<path d="M 168,184 L 168,192" fill="none" stroke="black"/>
<path d="M 168,216 L 168,224" fill="none" stroke="black"/>
<path d="M 384,16 L 384,24" fill="none" stroke="black"/>
<path d="M 384,40 L 384,48" fill="none" stroke="black"/>
<path d="M 384,72 L 384,80" fill="none" stroke="black"/>
<path d="M 384,160 L 384,168" fill="none" stroke="black"/>
<path d="M 384,184 L 384,192" fill="none" stroke="black"/>
<path d="M 384,216 L 384,224" fill="none" stroke="black"/>
<path d="M 384,304 L 384,312" fill="none" stroke="black"/>
<path d="M 384,328 L 384,336" fill="none" stroke="black"/>
<path d="M 384,360 L 384,368" fill="none" stroke="black"/>
<path d="M 384,384 L 384,392" fill="none" stroke="black"/>
<path d="M 384,408 L 384,416" fill="none" stroke="black"/>
<path d="M 104,232 L 104,240" fill="none" stroke="black"/>
<polygon points="120.000000,240.000000 108.000000,234.399994 108.000000,245.600006" transform="rotate(270.000000, 104.000000, 240.000000)" fill="black"/>
<path d="M 136,144 L 136,152" fill="none" stroke="black"/>
<polygon points="152.000000,144.000000 140.000000,138.399994 140.000000,149.600006" transform="rotate(90.000000, 136.000000, 144.000000)" fill="black"/>
<polygon points="168.000000,208.000000 156.000000,202.399994 156.000000,213.600006" transform="rotate(180.000000, 160.000000, 208.000000)" fill="black"/>
<polygon points="400.000000,32.000000 388.000000,26.400000 388.000000,37.599998" transform="rotate(0.000000, 392.000000, 32.000000)" fill="black"/>
<polygon points="400.000000,176.000000 388.000000,170.399994 388.000000,181.600006" transform="rotate(0.000000, 392.000000, 176.000000)" fill="black"/>
<polygon points="400.000000,320.000000 388.000000,314.399994 388.000000,325.600006" transform="rotate(0.000000, 392.000000, 320.000000)" fill="black"/>
<polygon points="400.000000,400.000000 388.000000,394.399994 388.000000,405.600006" transform="rotate(0.000000, 392.000000, 400.000000)" fill="black"/>
<path d="M 400,0 A 16,16 0 0,0 384,16" fill="none" stroke="black"/>
<path d="M 488,0 A 16,16 0 0,1 504,16" fill="none" stroke="black"/>
<path d="M 120,32 A 16,16 0 0,0 104,48" fill="none" stroke="black"/>
<path d="M 152,64 A 16,16 0 0,0 136,80" fill="none" stroke="black"/>
<path d="M 384,80 A 16,16 0 0,0 400,96" fill="none" stroke="black"/>
<path d="M 504,80 A 16,16 0 0,1 488,96" fill="none" stroke="black"/>
<path d="M 16,144 A 16,16 0 0,0 0,160" fill="none" stroke="black"/>
<path d="M 152,144 A 16,16 0 0,1 168,160" fill="none" stroke="black"/>
<path d="M 400,144 A 16,16 0 0,0 384,160" fill="none" stroke="black"/>
<path d="M 488,144 A 16,16 0 0,1 504,160" fill="none" stroke="black"/>
<path d="M 0,224 A 16,16 0 0,0 16,240" fill="none" stroke="black"/>
<path d="M 168,224 A 16,16 0 0,1 152,240" fill="none" stroke="black"/>
<path d="M 384,224 A 16,16 0 0,0 400,240" fill="none" stroke="black"/>
<path d="M 504,224 A 16,16 0 0,1 488,240" fill="none" stroke="black"/>
<path d="M 400,288 A 16,16 0 0,0 384,304" fill="none" stroke="black"/>
<path d="M 488,288 A 16,16 0 0,1 504,304" fill="none" stroke="black"/>
<path d="M 136,304 A 16,16 0 0,0 152,320" fill="none" stroke="black"/>
<path d="M 104,336 A 16,16 0 0,0 120,352" fill="none" stroke="black"/>
<path d="M 64,384 A 16,16 0 0,0 80,400" fill="none" stroke="black"/>
<path d="M 384,432 A 16,16 0 0,0 400,448" fill="none" stroke="black"/>
<path d="M 504,432 A 16,16 0 0,1 488,448" fill="none" stroke="black"/>
<text text-anchor="middle" font-family="monospace" x="272" y="52" fill="black" font-size="1em">)</text>
<text text-anchor="middle" font-family="monospace" x="168" y="420" fill="black" font-size="1em">S</text>
<text text-anchor="middle" font-family="monospace" x="112" y="196" fill="black" font-size="1em">D</text>
<text text-anchor="middle" font-family="monospace" x="280" y="420" fill="black" font-size="1em">e</text>
<text text-anchor="middle" font-family="monospace" x="232" y="164" fill="black" font-size="1em">o</text>
<text text-anchor="middle" font-family="monospace" x="304" y="164" fill="black" font-size="1em">a</text>
<text text-anchor="middle" font-family="monospace" x="328" y="228" fill="black" font-size="1em">x</text>
<text text-anchor="middle" font-family="monospace" x="216" y="308" fill="black" font-size="1em">e</text>
<text text-anchor="middle" font-family="monospace" x="232" y="308" fill="black" font-size="1em">.</text>
<text text-anchor="middle" font-family="monospace" x="336" y="20" fill="black" font-size="1em">?</text>
<text text-anchor="middle" font-family="monospace" x="472" y="52" fill="black" font-size="1em">C</text>
<text text-anchor="middle" font-family="monospace" x="480" y="52" fill="black" font-size="1em">P</text>
<text text-anchor="middle" font-family="monospace" x="432" y="340" fill="black" font-size="1em">S</text>
<text text-anchor="middle" font-family="monospace" x="472" y="372" fill="black" font-size="1em">C</text>
<text text-anchor="middle" font-family="monospace" x="208" y="420" fill="black" font-size="1em">v</text>
<text text-anchor="middle" font-family="monospace" x="416" y="340" fill="black" font-size="1em">D</text>
<text text-anchor="middle" font-family="monospace" x="304" y="372" fill="black" font-size="1em">1</text>
<text text-anchor="middle" font-family="monospace" x="328" y="420" fill="black" font-size="1em">e</text>
<text text-anchor="middle" font-family="monospace" x="480" y="196" fill="black" font-size="1em">D</text>
<text text-anchor="middle" font-family="monospace" x="264" y="228" fill="black" font-size="1em">o</text>
<text text-anchor="middle" font-family="monospace" x="368" y="228" fill="black" font-size="1em">e</text>
<text text-anchor="middle" font-family="monospace" x="216" y="164" fill="black" font-size="1em">d</text>
<text text-anchor="middle" font-family="monospace" x="264" y="196" fill="black" font-size="1em">b</text>
<text text-anchor="middle" font-family="monospace" x="200" y="228" fill="black" font-size="1em">A</text>
<text text-anchor="middle" font-family="monospace" x="232" y="228" fill="black" font-size="1em">v</text>
<text text-anchor="middle" font-family="monospace" x="296" y="228" fill="black" font-size="1em">d</text>
<text text-anchor="middle" font-family="monospace" x="424" y="52" fill="black" font-size="1em">N</text>
<text text-anchor="middle" font-family="monospace" x="216" y="84" fill="black" font-size="1em">v</text>
<text text-anchor="middle" font-family="monospace" x="208" y="164" fill="black" font-size="1em">i</text>
<text text-anchor="middle" font-family="monospace" x="224" y="420" fill="black" font-size="1em">d</text>
<text text-anchor="middle" font-family="monospace" x="192" y="308" fill="black" font-size="1em">v</text>
<text text-anchor="middle" font-family="monospace" x="296" y="372" fill="black" font-size="1em">.</text>
<text text-anchor="middle" font-family="monospace" x="488" y="372" fill="black" font-size="1em">N</text>
<text text-anchor="middle" font-family="monospace" x="304" y="308" fill="black" font-size="1em">m</text>
<text text-anchor="middle" font-family="monospace" x="320" y="308" fill="black" font-size="1em">l</text>
<text text-anchor="middle" font-family="monospace" x="320" y="420" fill="black" font-size="1em">l</text>
<text text-anchor="middle" font-family="monospace" x="296" y="84" fill="black" font-size="1em">.</text>
<text text-anchor="middle" font-family="monospace" x="120" y="196" fill="black" font-size="1em">N</text>
<text text-anchor="middle" font-family="monospace" x="248" y="372" fill="black" font-size="1em">9</text>
<text text-anchor="middle" font-family="monospace" x="200" y="20" fill="black" font-size="1em">v</text>
<text text-anchor="middle" font-family="monospace" x="240" y="84" fill="black" font-size="1em">e</text>
<text text-anchor="middle" font-family="monospace" x="248" y="164" fill="black" font-size="1em">u</text>
<text text-anchor="middle" font-family="monospace" x="232" y="84" fill="black" font-size="1em">d</text>
<text text-anchor="middle" font-family="monospace" x="304" y="84" fill="black" font-size="1em">e</text>
<text text-anchor="middle" font-family="monospace" x="200" y="308" fill="black" font-size="1em">i</text>
<text text-anchor="middle" font-family="monospace" x="264" y="308" fill="black" font-size="1em">n</text>
<text text-anchor="middle" font-family="monospace" x="240" y="420" fill="black" font-size="1em">o</text>
<text text-anchor="middle" font-family="monospace" x="240" y="372" fill="black" font-size="1em">1</text>
<text text-anchor="middle" font-family="monospace" x="336" y="164" fill="black" font-size="1em">e</text>
<text text-anchor="middle" font-family="monospace" x="272" y="196" fill="black" font-size="1em">)</text>
<text text-anchor="middle" font-family="monospace" x="288" y="420" fill="black" font-size="1em">x</text>
<text text-anchor="middle" font-family="monospace" x="256" y="20" fill="black" font-size="1em">p</text>
<text text-anchor="middle" font-family="monospace" x="312" y="20" fill="black" font-size="1em">l</text>
<text text-anchor="middle" font-family="monospace" x="272" y="308" fill="black" font-size="1em">.</text>
<text text-anchor="middle" font-family="monospace" x="320" y="164" fill="black" font-size="1em">p</text>
<text text-anchor="middle" font-family="monospace" x="16" y="196" fill="black" font-size="1em">U</text>
<text text-anchor="middle" font-family="monospace" x="280" y="308" fill="black" font-size="1em">e</text>
<text text-anchor="middle" font-family="monospace" x="272" y="372" fill="black" font-size="1em">0</text>
<text text-anchor="middle" font-family="monospace" x="424" y="404" fill="black" font-size="1em">L</text>
<text text-anchor="middle" font-family="monospace" x="256" y="52" fill="black" font-size="1em">(</text>
<text text-anchor="middle" font-family="monospace" x="192" y="84" fill="black" font-size="1em">M</text>
<text text-anchor="middle" font-family="monospace" x="264" y="84" fill="black" font-size="1em">u</text>
<text text-anchor="middle" font-family="monospace" x="344" y="228" fill="black" font-size="1em">m</text>
<text text-anchor="middle" font-family="monospace" x="352" y="228" fill="black" font-size="1em">p</text>
<text text-anchor="middle" font-family="monospace" x="256" y="308" fill="black" font-size="1em">d</text>
<text text-anchor="middle" font-family="monospace" x="216" y="420" fill="black" font-size="1em">i</text>
<text text-anchor="middle" font-family="monospace" x="296" y="20" fill="black" font-size="1em">m</text>
<text text-anchor="middle" font-family="monospace" x="224" y="84" fill="black" font-size="1em">i</text>
<text text-anchor="middle" font-family="monospace" x="288" y="164" fill="black" font-size="1em">e</text>
<text text-anchor="middle" font-family="monospace" x="432" y="196" fill="black" font-size="1em">S</text>
<text text-anchor="middle" font-family="monospace" x="296" y="308" fill="black" font-size="1em">a</text>
<text text-anchor="middle" font-family="monospace" x="464" y="372" fill="black" font-size="1em">d</text>
<text text-anchor="middle" font-family="monospace" x="304" y="420" fill="black" font-size="1em">m</text>
<text text-anchor="middle" font-family="monospace" x="208" y="20" fill="black" font-size="1em">i</text>
<text text-anchor="middle" font-family="monospace" x="320" y="20" fill="black" font-size="1em">e</text>
<text text-anchor="middle" font-family="monospace" x="184" y="84" fill="black" font-size="1em">A</text>
<text text-anchor="middle" font-family="monospace" x="288" y="20" fill="black" font-size="1em">a</text>
<text text-anchor="middle" font-family="monospace" x="296" y="164" fill="black" font-size="1em">x</text>
<text text-anchor="middle" font-family="monospace" x="128" y="196" fill="black" font-size="1em">S</text>
<text text-anchor="middle" font-family="monospace" x="272" y="228" fill="black" font-size="1em">.</text>
<text text-anchor="middle" font-family="monospace" x="360" y="228" fill="black" font-size="1em">l</text>
<text text-anchor="middle" font-family="monospace" x="216" y="20" fill="black" font-size="1em">d</text>
<text text-anchor="middle" font-family="monospace" x="248" y="20" fill="black" font-size="1em">c</text>
<text text-anchor="middle" font-family="monospace" x="280" y="20" fill="black" font-size="1em">x</text>
<text text-anchor="middle" font-family="monospace" x="344" y="308" fill="black" font-size="1em">?</text>
<text text-anchor="middle" font-family="monospace" x="416" y="404" fill="black" font-size="1em">T</text>
<text text-anchor="middle" font-family="monospace" x="464" y="196" fill="black" font-size="1em">u</text>
<text text-anchor="middle" font-family="monospace" x="248" y="228" fill="black" font-size="1em">d</text>
<text text-anchor="middle" font-family="monospace" x="272" y="84" fill="black" font-size="1em">c</text>
<text text-anchor="middle" font-family="monospace" x="312" y="84" fill="black" font-size="1em">x</text>
<text text-anchor="middle" font-family="monospace" x="280" y="164" fill="black" font-size="1em">.</text>
<text text-anchor="middle" font-family="monospace" x="24" y="196" fill="black" font-size="1em">A</text>
<text text-anchor="middle" font-family="monospace" x="256" y="228" fill="black" font-size="1em">e</text>
<text text-anchor="middle" font-family="monospace" x="312" y="228" fill="black" font-size="1em">.</text>
<text text-anchor="middle" font-family="monospace" x="272" y="340" fill="black" font-size="1em">)</text>
<text text-anchor="middle" font-family="monospace" x="272" y="420" fill="black" font-size="1em">.</text>
<text text-anchor="middle" font-family="monospace" x="304" y="20" fill="black" font-size="1em">p</text>
<text text-anchor="middle" font-family="monospace" x="256" y="164" fill="black" font-size="1em">c</text>
<text text-anchor="middle" font-family="monospace" x="328" y="164" fill="black" font-size="1em">l</text>
<text text-anchor="middle" font-family="monospace" x="336" y="84" fill="black" font-size="1em">p</text>
<text text-anchor="middle" font-family="monospace" x="264" y="340" fill="black" font-size="1em">c</text>
<text text-anchor="middle" font-family="monospace" x="264" y="372" fill="black" font-size="1em">.</text>
<text text-anchor="middle" font-family="monospace" x="416" y="196" fill="black" font-size="1em">D</text>
<text text-anchor="middle" font-family="monospace" x="472" y="196" fill="black" font-size="1em">C</text>
<text text-anchor="middle" font-family="monospace" x="312" y="308" fill="black" font-size="1em">p</text>
<text text-anchor="middle" font-family="monospace" x="184" y="420" fill="black" font-size="1em">I</text>
<text text-anchor="middle" font-family="monospace" x="232" y="420" fill="black" font-size="1em">e</text>
<text text-anchor="middle" font-family="monospace" x="272" y="20" fill="black" font-size="1em">e</text>
<text text-anchor="middle" font-family="monospace" x="272" y="164" fill="black" font-size="1em">n</text>
<text text-anchor="middle" font-family="monospace" x="72" y="196" fill="black" font-size="1em">S</text>
<text text-anchor="middle" font-family="monospace" x="432" y="52" fill="black" font-size="1em">S</text>
<text text-anchor="middle" font-family="monospace" x="424" y="340" fill="black" font-size="1em">N</text>
<text text-anchor="middle" font-family="monospace" x="256" y="372" fill="black" font-size="1em">2</text>
<text text-anchor="middle" font-family="monospace" x="328" y="308" fill="black" font-size="1em">e</text>
<text text-anchor="middle" font-family="monospace" x="352" y="84" fill="black" font-size="1em">e</text>
<text text-anchor="middle" font-family="monospace" x="200" y="164" fill="black" font-size="1em">v</text>
<text text-anchor="middle" font-family="monospace" x="184" y="228" fill="black" font-size="1em">C</text>
<text text-anchor="middle" font-family="monospace" x="192" y="228" fill="black" font-size="1em">N</text>
<text text-anchor="middle" font-family="monospace" x="216" y="228" fill="black" font-size="1em">E</text>
<text text-anchor="middle" font-family="monospace" x="240" y="228" fill="black" font-size="1em">i</text>
<text text-anchor="middle" font-family="monospace" x="224" y="372" fill="black" font-size="1em">A</text>
<text text-anchor="middle" font-family="monospace" x="168" y="84" fill="black" font-size="1em">C</text>
<text text-anchor="middle" font-family="monospace" x="248" y="84" fill="black" font-size="1em">o</text>
<text text-anchor="middle" font-family="monospace" x="352" y="164" fill="black" font-size="1em">?</text>
<text text-anchor="middle" font-family="monospace" x="328" y="84" fill="black" font-size="1em">m</text>
<text text-anchor="middle" font-family="monospace" x="312" y="164" fill="black" font-size="1em">m</text>
<text text-anchor="middle" font-family="monospace" x="424" y="196" fill="black" font-size="1em">N</text>
<text text-anchor="middle" font-family="monospace" x="280" y="228" fill="black" font-size="1em">d</text>
<text text-anchor="middle" font-family="monospace" x="240" y="308" fill="black" font-size="1em">d</text>
<text text-anchor="middle" font-family="monospace" x="240" y="20" fill="black" font-size="1em">.</text>
<text text-anchor="middle" font-family="monospace" x="176" y="84" fill="black" font-size="1em">N</text>
<text text-anchor="middle" font-family="monospace" x="280" y="84" fill="black" font-size="1em">d</text>
<text text-anchor="middle" font-family="monospace" x="264" y="420" fill="black" font-size="1em">p</text>
<text text-anchor="middle" font-family="monospace" x="312" y="420" fill="black" font-size="1em">p</text>
<text text-anchor="middle" font-family="monospace" x="248" y="308" fill="black" font-size="1em">c</text>
<text text-anchor="middle" font-family="monospace" x="176" y="420" fill="black" font-size="1em">N</text>
<text text-anchor="middle" font-family="monospace" x="288" y="228" fill="black" font-size="1em">c</text>
<text text-anchor="middle" font-family="monospace" x="320" y="228" fill="black" font-size="1em">e</text>
<text text-anchor="middle" font-family="monospace" x="336" y="228" fill="black" font-size="1em">a</text>
<text text-anchor="middle" font-family="monospace" x="224" y="164" fill="black" font-size="1em">e</text>
<text text-anchor="middle" font-family="monospace" x="56" y="196" fill="black" font-size="1em">T</text>
<text text-anchor="middle" font-family="monospace" x="224" y="308" fill="black" font-size="1em">o</text>
<text text-anchor="middle" font-family="monospace" x="224" y="20" fill="black" font-size="1em">e</text>
<text text-anchor="middle" font-family="monospace" x="232" y="20" fill="black" font-size="1em">o</text>
<text text-anchor="middle" font-family="monospace" x="264" y="20" fill="black" font-size="1em">.</text>
<text text-anchor="middle" font-family="monospace" x="256" y="340" fill="black" font-size="1em">(</text>
<text text-anchor="middle" font-family="monospace" x="480" y="372" fill="black" font-size="1em">D</text>
<text text-anchor="middle" font-family="monospace" x="256" y="84" fill="black" font-size="1em">.</text>
<text text-anchor="middle" font-family="monospace" x="488" y="196" fill="black" font-size="1em">N</text>
<text text-anchor="middle" font-family="monospace" x="208" y="308" fill="black" font-size="1em">d</text>
<text text-anchor="middle" font-family="monospace" x="64" y="196" fill="black" font-size="1em">L</text>
<text text-anchor="middle" font-family="monospace" x="304" y="228" fill="black" font-size="1em">n</text>
<text text-anchor="middle" font-family="monospace" x="192" y="420" fill="black" font-size="1em">:</text>
<text text-anchor="middle" font-family="monospace" x="256" y="420" fill="black" font-size="1em">c</text>
<text text-anchor="middle" font-family="monospace" x="264" y="52" fill="black" font-size="1em">a</text>
<text text-anchor="middle" font-family="monospace" x="288" y="84" fill="black" font-size="1em">n</text>
<text text-anchor="middle" font-family="monospace" x="320" y="84" fill="black" font-size="1em">a</text>
<text text-anchor="middle" font-family="monospace" x="208" y="228" fill="black" font-size="1em">M</text>
<text text-anchor="middle" font-family="monospace" x="288" y="372" fill="black" font-size="1em">2</text>
<text text-anchor="middle" font-family="monospace" x="432" y="404" fill="black" font-size="1em">S</text>
<text text-anchor="middle" font-family="monospace" x="296" y="420" fill="black" font-size="1em">a</text>
<text text-anchor="middle" font-family="monospace" x="240" y="164" fill="black" font-size="1em">.</text>
<text text-anchor="middle" font-family="monospace" x="264" y="164" fill="black" font-size="1em">d</text>
<text text-anchor="middle" font-family="monospace" x="256" y="196" fill="black" font-size="1em">(</text>
<text text-anchor="middle" font-family="monospace" x="248" y="420" fill="black" font-size="1em">.</text>
<text text-anchor="middle" font-family="monospace" x="344" y="84" fill="black" font-size="1em">l</text>
<text text-anchor="middle" font-family="monospace" x="288" y="308" fill="black" font-size="1em">x</text>
<text text-anchor="middle" font-family="monospace" x="280" y="372" fill="black" font-size="1em">.</text>
<text text-anchor="middle" font-family="monospace" x="416" y="52" fill="black" font-size="1em">D</text>
<text text-anchor="middle" font-family="monospace" x="200" y="84" fill="black" font-size="1em">E</text>
</g>
</svg>
