<?xml version='1.0' encoding='utf-8'?>
<svg xmlns="http://www.w3.org/2000/svg" class="diagram" version="1.1" height="825" width="480" viewBox="0 0 480.0 825.0">
<g transform="translate(8,16)">
<path d="M 16,16 L 56,16" fill="none" stroke="black"/>
<path d="M 176,16 L 288,16" fill="none" stroke="black"/>
<path d="M 408,16 L 448,16" fill="none" stroke="black"/>
<path d="M 0,48 L 72,48" fill="none" stroke="black"/>
<path d="M 160,48 L 232,48" fill="none" stroke="black"/>
<path d="M 232,48 L 304,48" fill="none" stroke="black"/>
<path d="M 392,48 L 464,48" fill="none" stroke="black"/>
<path d="M 0,80 L 32,80" fill="none" stroke="black"/>
<path d="M 32,80 L 72,80" fill="none" stroke="black"/>
<path d="M 160,80 L 200,80" fill="none" stroke="black"/>
<path d="M 200,80 L 232,80" fill="none" stroke="black"/>
<path d="M 232,80 L 264,80" fill="none" stroke="black"/>
<path d="M 264,80 L 304,80" fill="none" stroke="black"/>
<path d="M 392,80 L 432,80" fill="none" stroke="black"/>
<path d="M 432,80 L 464,80" fill="none" stroke="black"/>
<path d="M 32,144 L 192,144" fill="none" stroke="black"/>
<path d="M 32,256 L 192,256" fill="none" stroke="black"/>
<path d="M 40,288 L 200,288" fill="none" stroke="black"/>
<path d="M 264,304 L 424,304" fill="none" stroke="black"/>
<path d="M 272,352 L 432,352" fill="none" stroke="black"/>
<path d="M 264,400 L 424,400" fill="none" stroke="black"/>
<path d="M 264,496 L 424,496" fill="none" stroke="black"/>
<path d="M 272,528 L 432,528" fill="none" stroke="black"/>
<path d="M 32,608 L 424,608" fill="none" stroke="black"/>
<path d="M 40,640 L 432,640" fill="none" stroke="black"/>
<path d="M 32,672 L 424,672" fill="none" stroke="black"/>
<path d="M 40,704 L 432,704" fill="none" stroke="black"/>
<path d="M 32,752 L 424,752" fill="none" stroke="black"/>
<path d="M 40,784 L 432,784" fill="none" stroke="black"/>
<path d="M 0,32 L 0,48" fill="none" stroke="black"/>
<path d="M 0,48 L 0,80" fill="none" stroke="black"/>
<path d="M 32,80 L 32,144" fill="none" stroke="black"/>
<path d="M 32,144 L 32,256" fill="none" stroke="black"/>
<path d="M 32,256 L 32,608" fill="none" stroke="black"/>
<path d="M 32,608 L 32,672" fill="none" stroke="black"/>
<path d="M 32,672 L 32,752" fill="none" stroke="black"/>
<path d="M 32,752 L 32,784" fill="none" stroke="black"/>
<path d="M 72,32 L 72,48" fill="none" stroke="black"/>
<path d="M 72,48 L 72,80" fill="none" stroke="black"/>
<path d="M 160,32 L 160,48" fill="none" stroke="black"/>
<path d="M 160,48 L 160,80" fill="none" stroke="black"/>
<path d="M 200,80 L 200,288" fill="none" stroke="black"/>
<path d="M 200,288 L 200,560" fill="none" stroke="black"/>
<path d="M 232,48 L 232,80" fill="none" stroke="black"/>
<path d="M 264,80 L 264,304" fill="none" stroke="black"/>
<path d="M 264,304 L 264,400" fill="none" stroke="black"/>
<path d="M 264,400 L 264,496" fill="none" stroke="black"/>
<path d="M 264,496 L 264,560" fill="none" stroke="black"/>
<path d="M 304,32 L 304,48" fill="none" stroke="black"/>
<path d="M 304,48 L 304,80" fill="none" stroke="black"/>
<path d="M 392,32 L 392,48" fill="none" stroke="black"/>
<path d="M 392,48 L 392,80" fill="none" stroke="black"/>
<path d="M 432,80 L 432,352" fill="none" stroke="black"/>
<path d="M 432,352 L 432,528" fill="none" stroke="black"/>
<path d="M 432,528 L 432,640" fill="none" stroke="black"/>
<path d="M 432,640 L 432,704" fill="none" stroke="black"/>
<path d="M 432,704 L 432,784" fill="none" stroke="black"/>
<path d="M 464,32 L 464,48" fill="none" stroke="black"/>
<path d="M 464,48 L 464,80" fill="none" stroke="black"/>
<polygon points="48.000000,288.000000 36.000000,282.399994 36.000000,293.600006" transform="rotate(180.000000, 40.000000, 288.000000)" fill="black"/>
<polygon points="48.000000,640.000000 36.000000,634.400024 36.000000,645.599976" transform="rotate(180.000000, 40.000000, 640.000000)" fill="black"/>
<polygon points="48.000000,704.000000 36.000000,698.400024 36.000000,709.599976" transform="rotate(180.000000, 40.000000, 704.000000)" fill="black"/>
<polygon points="48.000000,784.000000 36.000000,778.400024 36.000000,789.599976" transform="rotate(180.000000, 40.000000, 784.000000)" fill="black"/>
<polygon points="200.000000,144.000000 188.000000,138.399994 188.000000,149.600006" transform="rotate(0.000000, 192.000000, 144.000000)" fill="black"/>
<polygon points="200.000000,256.000000 188.000000,250.399994 188.000000,261.600006" transform="rotate(0.000000, 192.000000, 256.000000)" fill="black"/>
<polygon points="280.000000,352.000000 268.000000,346.399994 268.000000,357.600006" transform="rotate(180.000000, 272.000000, 352.000000)" fill="black"/>
<polygon points="280.000000,528.000000 268.000000,522.400024 268.000000,533.599976" transform="rotate(180.000000, 272.000000, 528.000000)" fill="black"/>
<polygon points="432.000000,304.000000 420.000000,298.399994 420.000000,309.600006" transform="rotate(0.000000, 424.000000, 304.000000)" fill="black"/>
<polygon points="432.000000,400.000000 420.000000,394.399994 420.000000,405.600006" transform="rotate(0.000000, 424.000000, 400.000000)" fill="black"/>
<polygon points="432.000000,496.000000 420.000000,490.399994 420.000000,501.600006" transform="rotate(0.000000, 424.000000, 496.000000)" fill="black"/>
<polygon points="432.000000,608.000000 420.000000,602.400024 420.000000,613.599976" transform="rotate(0.000000, 424.000000, 608.000000)" fill="black"/>
<polygon points="432.000000,672.000000 420.000000,666.400024 420.000000,677.599976" transform="rotate(0.000000, 424.000000, 672.000000)" fill="black"/>
<polygon points="432.000000,752.000000 420.000000,746.400024 420.000000,757.599976" transform="rotate(0.000000, 424.000000, 752.000000)" fill="black"/>
<path d="M 16,16 A 16,16 0 0,0 0,32" fill="none" stroke="black"/>
<path d="M 56,16 A 16,16 0 0,1 72,32" fill="none" stroke="black"/>
<path d="M 176,16 A 16,16 0 0,0 160,32" fill="none" stroke="black"/>
<path d="M 288,16 A 16,16 0 0,1 304,32" fill="none" stroke="black"/>
<path d="M 408,16 A 16,16 0 0,0 392,32" fill="none" stroke="black"/>
<path d="M 448,16 A 16,16 0 0,1 464,32" fill="none" stroke="black"/>
<circle cx="32" cy="144" r="6" fill="white" stroke="black"/>
<circle cx="32" cy="256" r="6" fill="white" stroke="black"/>
<circle cx="32" cy="608" r="6" fill="white" stroke="black"/>
<circle cx="32" cy="672" r="6" fill="white" stroke="black"/>
<circle cx="32" cy="752" r="6" fill="white" stroke="black"/>
<circle cx="200" cy="288" r="6" fill="white" stroke="black"/>
<circle cx="264" cy="304" r="6" fill="white" stroke="black"/>
<circle cx="264" cy="400" r="6" fill="white" stroke="black"/>
<circle cx="264" cy="496" r="6" fill="white" stroke="black"/>
<circle cx="432" cy="352" r="6" fill="white" stroke="black"/>
<circle cx="432" cy="528" r="6" fill="white" stroke="black"/>
<circle cx="432" cy="640" r="6" fill="white" stroke="black"/>
<circle cx="432" cy="704" r="6" fill="white" stroke="black"/>
<circle cx="432" cy="784" r="6" fill="white" stroke="black"/>
<text text-anchor="middle" font-family="monospace" x="240" y="692" fill="black" font-size="1em">a</text>
<text text-anchor="middle" font-family="monospace" x="280" y="740" fill="black" font-size="1em">R</text>
<text text-anchor="middle" font-family="monospace" x="344" y="740" fill="black" font-size="1em">i</text>
<text text-anchor="middle" font-family="monospace" x="104" y="276" fill="black" font-size="1em">w</text>
<text text-anchor="middle" font-family="monospace" x="168" y="276" fill="black" font-size="1em">n</text>
<text text-anchor="middle" font-family="monospace" x="360" y="436" fill="black" font-size="1em">t</text>
<text text-anchor="middle" font-family="monospace" x="344" y="564" fill="black" font-size="1em">i</text>
<text text-anchor="middle" font-family="monospace" x="256" y="660" fill="black" font-size="1em">S</text>
<text text-anchor="middle" font-family="monospace" x="184" y="740" fill="black" font-size="1em">t</text>
<text text-anchor="middle" font-family="monospace" x="88" y="180" fill="black" font-size="1em">o</text>
<text text-anchor="middle" font-family="monospace" x="392" y="340" fill="black" font-size="1em">n</text>
<text text-anchor="middle" font-family="monospace" x="424" y="436" fill="black" font-size="1em">&gt;</text>
<text text-anchor="middle" font-family="monospace" x="184" y="596" fill="black" font-size="1em">t</text>
<text text-anchor="middle" font-family="monospace" x="40" y="564" fill="black" font-size="1em">&lt;</text>
<text text-anchor="middle" font-family="monospace" x="408" y="564" fill="black" font-size="1em">~</text>
<text text-anchor="middle" font-family="monospace" x="344" y="660" fill="black" font-size="1em">i</text>
<text text-anchor="middle" font-family="monospace" x="368" y="660" fill="black" font-size="1em">t</text>
<text text-anchor="middle" font-family="monospace" x="16" y="68" fill="black" font-size="1em">C</text>
<text text-anchor="middle" font-family="monospace" x="272" y="68" fill="black" font-size="1em">e</text>
<text text-anchor="middle" font-family="monospace" x="320" y="436" fill="black" font-size="1em">a</text>
<text text-anchor="middle" font-family="monospace" x="392" y="516" fill="black" font-size="1em">e</text>
<text text-anchor="middle" font-family="monospace" x="336" y="740" fill="black" font-size="1em">f</text>
<text text-anchor="middle" font-family="monospace" x="360" y="740" fill="black" font-size="1em">a</text>
<text text-anchor="middle" font-family="monospace" x="256" y="772" fill="black" font-size="1em">e</text>
<text text-anchor="middle" font-family="monospace" x="88" y="660" fill="black" font-size="1em">u</text>
<text text-anchor="middle" font-family="monospace" x="320" y="740" fill="black" font-size="1em">t</text>
<text text-anchor="middle" font-family="monospace" x="144" y="196" fill="black" font-size="1em">o</text>
<text text-anchor="middle" font-family="monospace" x="72" y="228" fill="black" font-size="1em">S</text>
<text text-anchor="middle" font-family="monospace" x="352" y="324" fill="black" font-size="1em">e</text>
<text text-anchor="middle" font-family="monospace" x="168" y="564" fill="black" font-size="1em">e</text>
<text text-anchor="middle" font-family="monospace" x="88" y="116" fill="black" font-size="1em">e</text>
<text text-anchor="middle" font-family="monospace" x="120" y="564" fill="black" font-size="1em">s</text>
<text text-anchor="middle" font-family="monospace" x="288" y="564" fill="black" font-size="1em">~</text>
<text text-anchor="middle" font-family="monospace" x="208" y="724" fill="black" font-size="1em">[</text>
<text text-anchor="middle" font-family="monospace" x="424" y="564" fill="black" font-size="1em">&gt;</text>
<text text-anchor="middle" font-family="monospace" x="176" y="596" fill="black" font-size="1em">a</text>
<text text-anchor="middle" font-family="monospace" x="192" y="692" fill="black" font-size="1em">r</text>
<text text-anchor="middle" font-family="monospace" x="264" y="68" fill="black" font-size="1em">i</text>
<text text-anchor="middle" font-family="monospace" x="280" y="68" fill="black" font-size="1em">n</text>
<text text-anchor="middle" font-family="monospace" x="64" y="132" fill="black" font-size="1em">S</text>
<text text-anchor="middle" font-family="monospace" x="120" y="180" fill="black" font-size="1em">e</text>
<text text-anchor="middle" font-family="monospace" x="352" y="564" fill="black" font-size="1em">s</text>
<text text-anchor="middle" font-family="monospace" x="232" y="740" fill="black" font-size="1em">E</text>
<text text-anchor="middle" font-family="monospace" x="264" y="740" fill="black" font-size="1em">T</text>
<text text-anchor="middle" font-family="monospace" x="56" y="68" fill="black" font-size="1em">t</text>
<text text-anchor="middle" font-family="monospace" x="320" y="340" fill="black" font-size="1em">h</text>
<text text-anchor="middle" font-family="monospace" x="368" y="340" fill="black" font-size="1em">t</text>
<text text-anchor="middle" font-family="monospace" x="312" y="388" fill="black" font-size="1em">g</text>
<text text-anchor="middle" font-family="monospace" x="112" y="740" fill="black" font-size="1em">u</text>
<text text-anchor="middle" font-family="monospace" x="128" y="740" fill="black" font-size="1em">h</text>
<text text-anchor="middle" font-family="monospace" x="272" y="740" fill="black" font-size="1em">A</text>
<text text-anchor="middle" font-family="monospace" x="312" y="276" fill="black" font-size="1em">d</text>
<text text-anchor="middle" font-family="monospace" x="368" y="436" fill="black" font-size="1em">i</text>
<text text-anchor="middle" font-family="monospace" x="360" y="596" fill="black" font-size="1em">a</text>
<text text-anchor="middle" font-family="monospace" x="184" y="660" fill="black" font-size="1em">t</text>
<text text-anchor="middle" font-family="monospace" x="280" y="660" fill="black" font-size="1em">R</text>
<text text-anchor="middle" font-family="monospace" x="224" y="692" fill="black" font-size="1em">i</text>
<text text-anchor="middle" font-family="monospace" x="352" y="740" fill="black" font-size="1em">c</text>
<text text-anchor="middle" font-family="monospace" x="88" y="132" fill="black" font-size="1em">n</text>
<text text-anchor="middle" font-family="monospace" x="128" y="196" fill="black" font-size="1em">t</text>
<text text-anchor="middle" font-family="monospace" x="296" y="388" fill="black" font-size="1em">S</text>
<text text-anchor="middle" font-family="monospace" x="336" y="436" fill="black" font-size="1em">i</text>
<text text-anchor="middle" font-family="monospace" x="168" y="740" fill="black" font-size="1em">c</text>
<text text-anchor="middle" font-family="monospace" x="256" y="596" fill="black" font-size="1em">S</text>
<text text-anchor="middle" font-family="monospace" x="248" y="772" fill="black" font-size="1em">t</text>
<text text-anchor="middle" font-family="monospace" x="416" y="68" fill="black" font-size="1em">e</text>
<text text-anchor="middle" font-family="monospace" x="192" y="564" fill="black" font-size="1em">&gt;</text>
<text text-anchor="middle" font-family="monospace" x="320" y="564" fill="black" font-size="1em">i</text>
<text text-anchor="middle" font-family="monospace" x="360" y="564" fill="black" font-size="1em">s</text>
<text text-anchor="middle" font-family="monospace" x="232" y="596" fill="black" font-size="1em">E</text>
<text text-anchor="middle" font-family="monospace" x="232" y="692" fill="black" font-size="1em">c</text>
<text text-anchor="middle" font-family="monospace" x="200" y="596" fill="black" font-size="1em">d</text>
<text text-anchor="middle" font-family="monospace" x="256" y="68" fill="black" font-size="1em">l</text>
<text text-anchor="middle" font-family="monospace" x="72" y="276" fill="black" font-size="1em">c</text>
<text text-anchor="middle" font-family="monospace" x="312" y="468" fill="black" font-size="1em">R</text>
<text text-anchor="middle" font-family="monospace" x="360" y="516" fill="black" font-size="1em">d</text>
<text text-anchor="middle" font-family="monospace" x="360" y="372" fill="black" font-size="1em">s</text>
<text text-anchor="middle" font-family="monospace" x="88" y="740" fill="black" font-size="1em">u</text>
<text text-anchor="middle" font-family="monospace" x="24" y="68" fill="black" font-size="1em">l</text>
<text text-anchor="middle" font-family="monospace" x="160" y="180" fill="black" font-size="1em">y</text>
<text text-anchor="middle" font-family="monospace" x="384" y="324" fill="black" font-size="1em">r</text>
<text text-anchor="middle" font-family="monospace" x="336" y="372" fill="black" font-size="1em">n</text>
<text text-anchor="middle" font-family="monospace" x="360" y="660" fill="black" font-size="1em">a</text>
<text text-anchor="middle" font-family="monospace" x="120" y="740" fill="black" font-size="1em">t</text>
<text text-anchor="middle" font-family="monospace" x="96" y="564" fill="black" font-size="1em">t</text>
<text text-anchor="middle" font-family="monospace" x="176" y="564" fill="black" font-size="1em">~</text>
<text text-anchor="middle" font-family="monospace" x="384" y="564" fill="black" font-size="1em">n</text>
<text text-anchor="middle" font-family="monospace" x="368" y="596" fill="black" font-size="1em">t</text>
<text text-anchor="middle" font-family="monospace" x="328" y="596" fill="black" font-size="1em">i</text>
<text text-anchor="middle" font-family="monospace" x="176" y="692" fill="black" font-size="1em">C</text>
<text text-anchor="middle" font-family="monospace" x="176" y="772" fill="black" font-size="1em">C</text>
<text text-anchor="middle" font-family="monospace" x="24" y="36" fill="black" font-size="1em">N</text>
<text text-anchor="middle" font-family="monospace" x="408" y="68" fill="black" font-size="1em">S</text>
<text text-anchor="middle" font-family="monospace" x="336" y="276" fill="black" font-size="1em">'</text>
<text text-anchor="middle" font-family="monospace" x="64" y="564" fill="black" font-size="1em">A</text>
<text text-anchor="middle" font-family="monospace" x="304" y="516" fill="black" font-size="1em">c</text>
<text text-anchor="middle" font-family="monospace" x="80" y="564" fill="black" font-size="1em">a</text>
<text text-anchor="middle" font-family="monospace" x="80" y="660" fill="black" font-size="1em">(</text>
<text text-anchor="middle" font-family="monospace" x="200" y="692" fill="black" font-size="1em">t</text>
<text text-anchor="middle" font-family="monospace" x="152" y="276" fill="black" font-size="1em">m</text>
<text text-anchor="middle" font-family="monospace" x="360" y="324" fill="black" font-size="1em">q</text>
<text text-anchor="middle" font-family="monospace" x="344" y="388" fill="black" font-size="1em">u</text>
<text text-anchor="middle" font-family="monospace" x="304" y="436" fill="black" font-size="1em">~</text>
<text text-anchor="middle" font-family="monospace" x="272" y="660" fill="black" font-size="1em">A</text>
<text text-anchor="middle" font-family="monospace" x="104" y="740" fill="black" font-size="1em">a</text>
<text text-anchor="middle" font-family="monospace" x="240" y="628" fill="black" font-size="1em">a</text>
<text text-anchor="middle" font-family="monospace" x="104" y="660" fill="black" font-size="1em">a</text>
<text text-anchor="middle" font-family="monospace" x="368" y="740" fill="black" font-size="1em">t</text>
<text text-anchor="middle" font-family="monospace" x="88" y="196" fill="black" font-size="1em">a</text>
<text text-anchor="middle" font-family="monospace" x="360" y="340" fill="black" font-size="1em">a</text>
<text text-anchor="middle" font-family="monospace" x="320" y="372" fill="black" font-size="1em">p</text>
<text text-anchor="middle" font-family="monospace" x="376" y="436" fill="black" font-size="1em">o</text>
<text text-anchor="middle" font-family="monospace" x="296" y="564" fill="black" font-size="1em">A</text>
<text text-anchor="middle" font-family="monospace" x="304" y="596" fill="black" font-size="1em">e</text>
<text text-anchor="middle" font-family="monospace" x="336" y="596" fill="black" font-size="1em">f</text>
<text text-anchor="middle" font-family="monospace" x="344" y="596" fill="black" font-size="1em">i</text>
<text text-anchor="middle" font-family="monospace" x="400" y="516" fill="black" font-size="1em">n</text>
<text text-anchor="middle" font-family="monospace" x="328" y="564" fill="black" font-size="1em">t</text>
<text text-anchor="middle" font-family="monospace" x="136" y="740" fill="black" font-size="1em">e</text>
<text text-anchor="middle" font-family="monospace" x="136" y="180" fill="black" font-size="1em">t</text>
<text text-anchor="middle" font-family="monospace" x="336" y="292" fill="black" font-size="1em">t</text>
<text text-anchor="middle" font-family="monospace" x="312" y="436" fill="black" font-size="1em">V</text>
<text text-anchor="middle" font-family="monospace" x="352" y="436" fill="black" font-size="1em">a</text>
<text text-anchor="middle" font-family="monospace" x="296" y="484" fill="black" font-size="1em">S</text>
<text text-anchor="middle" font-family="monospace" x="416" y="564" fill="black" font-size="1em">~</text>
<text text-anchor="middle" font-family="monospace" x="192" y="740" fill="black" font-size="1em">e</text>
<text text-anchor="middle" font-family="monospace" x="240" y="36" fill="black" font-size="1em">O</text>
<text text-anchor="middle" font-family="monospace" x="112" y="132" fill="black" font-size="1em">u</text>
<text text-anchor="middle" font-family="monospace" x="80" y="244" fill="black" font-size="1em">g</text>
<text text-anchor="middle" font-family="monospace" x="112" y="244" fill="black" font-size="1em">u</text>
<text text-anchor="middle" font-family="monospace" x="192" y="628" fill="black" font-size="1em">r</text>
<text text-anchor="middle" font-family="monospace" x="320" y="660" fill="black" font-size="1em">t</text>
<text text-anchor="middle" font-family="monospace" x="96" y="740" fill="black" font-size="1em">n</text>
<text text-anchor="middle" font-family="monospace" x="72" y="116" fill="black" font-size="1em">r</text>
<text text-anchor="middle" font-family="monospace" x="88" y="276" fill="black" font-size="1em">n</text>
<text text-anchor="middle" font-family="monospace" x="160" y="276" fill="black" font-size="1em">e</text>
<text text-anchor="middle" font-family="monospace" x="384" y="340" fill="black" font-size="1em">o</text>
<text text-anchor="middle" font-family="monospace" x="216" y="628" fill="black" font-size="1em">f</text>
<text text-anchor="middle" font-family="monospace" x="296" y="660" fill="black" font-size="1em">c</text>
<text text-anchor="middle" font-family="monospace" x="256" y="692" fill="black" font-size="1em">e</text>
<text text-anchor="middle" font-family="monospace" x="256" y="740" fill="black" font-size="1em">S</text>
<text text-anchor="middle" font-family="monospace" x="200" y="68" fill="black" font-size="1em">v</text>
<text text-anchor="middle" font-family="monospace" x="64" y="228" fill="black" font-size="1em">C</text>
<text text-anchor="middle" font-family="monospace" x="312" y="484" fill="black" font-size="1em">g</text>
<text text-anchor="middle" font-family="monospace" x="168" y="596" fill="black" font-size="1em">c</text>
<text text-anchor="middle" font-family="monospace" x="312" y="740" fill="black" font-size="1em">r</text>
<text text-anchor="middle" font-family="monospace" x="272" y="436" fill="black" font-size="1em">&lt;</text>
<text text-anchor="middle" font-family="monospace" x="392" y="436" fill="black" font-size="1em">~</text>
<text text-anchor="middle" font-family="monospace" x="304" y="468" fill="black" font-size="1em">S</text>
<text text-anchor="middle" font-family="monospace" x="376" y="596" fill="black" font-size="1em">e</text>
<text text-anchor="middle" font-family="monospace" x="112" y="180" fill="black" font-size="1em">d</text>
<text text-anchor="middle" font-family="monospace" x="408" y="516" fill="black" font-size="1em">t</text>
<text text-anchor="middle" font-family="monospace" x="280" y="628" fill="black" font-size="1em">1</text>
<text text-anchor="middle" font-family="monospace" x="112" y="596" fill="black" font-size="1em">u</text>
<text text-anchor="middle" font-family="monospace" x="208" y="660" fill="black" font-size="1em">)</text>
<text text-anchor="middle" font-family="monospace" x="216" y="772" fill="black" font-size="1em">f</text>
<text text-anchor="middle" font-family="monospace" x="96" y="244" fill="black" font-size="1em">a</text>
<text text-anchor="middle" font-family="monospace" x="128" y="276" fill="black" font-size="1em">d</text>
<text text-anchor="middle" font-family="monospace" x="328" y="292" fill="black" font-size="1em">a</text>
<text text-anchor="middle" font-family="monospace" x="360" y="484" fill="black" font-size="1em">e</text>
<text text-anchor="middle" font-family="monospace" x="240" y="660" fill="black" font-size="1em">T</text>
<text text-anchor="middle" font-family="monospace" x="240" y="724" fill="black" font-size="1em">]</text>
<text text-anchor="middle" font-family="monospace" x="336" y="484" fill="black" font-size="1em">t</text>
<text text-anchor="middle" font-family="monospace" x="352" y="516" fill="black" font-size="1em">e</text>
<text text-anchor="middle" font-family="monospace" x="144" y="564" fill="black" font-size="1em">a</text>
<text text-anchor="middle" font-family="monospace" x="152" y="660" fill="black" font-size="1em">t</text>
<text text-anchor="middle" font-family="monospace" x="328" y="340" fill="black" font-size="1em">o</text>
<text text-anchor="middle" font-family="monospace" x="232" y="724" fill="black" font-size="1em">.</text>
<text text-anchor="middle" font-family="monospace" x="208" y="740" fill="black" font-size="1em">)</text>
<text text-anchor="middle" font-family="monospace" x="200" y="772" fill="black" font-size="1em">t</text>
<text text-anchor="middle" font-family="monospace" x="376" y="516" fill="black" font-size="1em">e</text>
<text text-anchor="middle" font-family="monospace" x="264" y="596" fill="black" font-size="1em">T</text>
<text text-anchor="middle" font-family="monospace" x="320" y="596" fill="black" font-size="1em">t</text>
<text text-anchor="middle" font-family="monospace" x="120" y="660" fill="black" font-size="1em">t</text>
<text text-anchor="middle" font-family="monospace" x="176" y="196" fill="black" font-size="1em">]</text>
<text text-anchor="middle" font-family="monospace" x="80" y="228" fill="black" font-size="1em">R</text>
<text text-anchor="middle" font-family="monospace" x="64" y="276" fill="black" font-size="1em">A</text>
<text text-anchor="middle" font-family="monospace" x="296" y="436" fill="black" font-size="1em">~</text>
<text text-anchor="middle" font-family="monospace" x="304" y="660" fill="black" font-size="1em">e</text>
<text text-anchor="middle" font-family="monospace" x="112" y="276" fill="black" font-size="1em">l</text>
<text text-anchor="middle" font-family="monospace" x="296" y="276" fill="black" font-size="1em">O</text>
<text text-anchor="middle" font-family="monospace" x="296" y="292" fill="black" font-size="1em">S</text>
<text text-anchor="middle" font-family="monospace" x="224" y="660" fill="black" font-size="1em">G</text>
<text text-anchor="middle" font-family="monospace" x="224" y="36" fill="black" font-size="1em">I</text>
<text text-anchor="middle" font-family="monospace" x="224" y="596" fill="black" font-size="1em">G</text>
<text text-anchor="middle" font-family="monospace" x="184" y="772" fill="black" font-size="1em">e</text>
<text text-anchor="middle" font-family="monospace" x="176" y="68" fill="black" font-size="1em">S</text>
<text text-anchor="middle" font-family="monospace" x="384" y="516" fill="black" font-size="1em">m</text>
<text text-anchor="middle" font-family="monospace" x="280" y="692" fill="black" font-size="1em">2</text>
<text text-anchor="middle" font-family="monospace" x="200" y="740" fill="black" font-size="1em">d</text>
<text text-anchor="middle" font-family="monospace" x="304" y="372" fill="black" font-size="1em">e</text>
<text text-anchor="middle" font-family="monospace" x="344" y="484" fill="black" font-size="1em">u</text>
<text text-anchor="middle" font-family="monospace" x="272" y="596" fill="black" font-size="1em">A</text>
<text text-anchor="middle" font-family="monospace" x="184" y="628" fill="black" font-size="1em">e</text>
<text text-anchor="middle" font-family="monospace" x="272" y="692" fill="black" font-size="1em">#</text>
<text text-anchor="middle" font-family="monospace" x="208" y="772" fill="black" font-size="1em">i</text>
<text text-anchor="middle" font-family="monospace" x="344" y="292" fill="black" font-size="1em">u</text>
<text text-anchor="middle" font-family="monospace" x="304" y="340" fill="black" font-size="1em">u</text>
<text text-anchor="middle" font-family="monospace" x="96" y="596" fill="black" font-size="1em">n</text>
<text text-anchor="middle" font-family="monospace" x="312" y="660" fill="black" font-size="1em">r</text>
<text text-anchor="middle" font-family="monospace" x="176" y="660" fill="black" font-size="1em">a</text>
<text text-anchor="middle" font-family="monospace" x="328" y="660" fill="black" font-size="1em">i</text>
<text text-anchor="middle" font-family="monospace" x="352" y="660" fill="black" font-size="1em">c</text>
<text text-anchor="middle" font-family="monospace" x="224" y="772" fill="black" font-size="1em">i</text>
<text text-anchor="middle" font-family="monospace" x="440" y="68" fill="black" font-size="1em">e</text>
<text text-anchor="middle" font-family="monospace" x="328" y="372" fill="black" font-size="1em">o</text>
<text text-anchor="middle" font-family="monospace" x="328" y="388" fill="black" font-size="1em">a</text>
<text text-anchor="middle" font-family="monospace" x="416" y="436" fill="black" font-size="1em">~</text>
<text text-anchor="middle" font-family="monospace" x="232" y="772" fill="black" font-size="1em">c</text>
<text text-anchor="middle" font-family="monospace" x="56" y="564" fill="black" font-size="1em">~</text>
<text text-anchor="middle" font-family="monospace" x="200" y="628" fill="black" font-size="1em">t</text>
<text text-anchor="middle" font-family="monospace" x="184" y="68" fill="black" font-size="1em">e</text>
<text text-anchor="middle" font-family="monospace" x="152" y="180" fill="black" font-size="1em">t</text>
<text text-anchor="middle" font-family="monospace" x="176" y="180" fill="black" font-size="1em">]</text>
<text text-anchor="middle" font-family="monospace" x="96" y="276" fill="black" font-size="1em">o</text>
<text text-anchor="middle" font-family="monospace" x="256" y="628" fill="black" font-size="1em">e</text>
<text text-anchor="middle" font-family="monospace" x="96" y="660" fill="black" font-size="1em">n</text>
<text text-anchor="middle" font-family="monospace" x="104" y="244" fill="black" font-size="1em">t</text>
<text text-anchor="middle" font-family="monospace" x="80" y="276" fill="black" font-size="1em">k</text>
<text text-anchor="middle" font-family="monospace" x="152" y="596" fill="black" font-size="1em">t</text>
<text text-anchor="middle" font-family="monospace" x="208" y="596" fill="black" font-size="1em">)</text>
<text text-anchor="middle" font-family="monospace" x="184" y="564" fill="black" font-size="1em">-</text>
<text text-anchor="middle" font-family="monospace" x="128" y="596" fill="black" font-size="1em">h</text>
<text text-anchor="middle" font-family="monospace" x="144" y="596" fill="black" font-size="1em">n</text>
<text text-anchor="middle" font-family="monospace" x="208" y="628" fill="black" font-size="1em">i</text>
<text text-anchor="middle" font-family="monospace" x="248" y="68" fill="black" font-size="1em">C</text>
<text text-anchor="middle" font-family="monospace" x="120" y="244" fill="black" font-size="1em">r</text>
<text text-anchor="middle" font-family="monospace" x="304" y="276" fill="black" font-size="1em">r</text>
<text text-anchor="middle" font-family="monospace" x="400" y="324" fill="black" font-size="1em">d</text>
<text text-anchor="middle" font-family="monospace" x="176" y="740" fill="black" font-size="1em">a</text>
<text text-anchor="middle" font-family="monospace" x="280" y="772" fill="black" font-size="1em">n</text>
<text text-anchor="middle" font-family="monospace" x="384" y="436" fill="black" font-size="1em">n</text>
<text text-anchor="middle" font-family="monospace" x="328" y="484" fill="black" font-size="1em">a</text>
<text text-anchor="middle" font-family="monospace" x="160" y="564" fill="black" font-size="1em">c</text>
<text text-anchor="middle" font-family="monospace" x="432" y="68" fill="black" font-size="1em">v</text>
<text text-anchor="middle" font-family="monospace" x="80" y="132" fill="black" font-size="1em">g</text>
<text text-anchor="middle" font-family="monospace" x="176" y="276" fill="black" font-size="1em">t</text>
<text text-anchor="middle" font-family="monospace" x="328" y="276" fill="black" font-size="1em">r</text>
<text text-anchor="middle" font-family="monospace" x="96" y="116" fill="black" font-size="1em">r</text>
<text text-anchor="middle" font-family="monospace" x="304" y="292" fill="black" font-size="1em">i</text>
<text text-anchor="middle" font-family="monospace" x="344" y="516" fill="black" font-size="1em">l</text>
<text text-anchor="middle" font-family="monospace" x="80" y="596" fill="black" font-size="1em">(</text>
<text text-anchor="middle" font-family="monospace" x="104" y="196" fill="black" font-size="1em">i</text>
<text text-anchor="middle" font-family="monospace" x="328" y="516" fill="black" font-size="1em">o</text>
<text text-anchor="middle" font-family="monospace" x="216" y="692" fill="black" font-size="1em">f</text>
<text text-anchor="middle" font-family="monospace" x="368" y="516" fill="black" font-size="1em">g</text>
<text text-anchor="middle" font-family="monospace" x="352" y="596" fill="black" font-size="1em">c</text>
<text text-anchor="middle" font-family="monospace" x="200" y="660" fill="black" font-size="1em">d</text>
<text text-anchor="middle" font-family="monospace" x="224" y="724" fill="black" font-size="1em">.</text>
<text text-anchor="middle" font-family="monospace" x="304" y="388" fill="black" font-size="1em">i</text>
<text text-anchor="middle" font-family="monospace" x="320" y="388" fill="black" font-size="1em">n</text>
<text text-anchor="middle" font-family="monospace" x="88" y="564" fill="black" font-size="1em">i</text>
<text text-anchor="middle" font-family="monospace" x="224" y="628" fill="black" font-size="1em">i</text>
<text text-anchor="middle" font-family="monospace" x="32" y="68" fill="black" font-size="1em">i</text>
<text text-anchor="middle" font-family="monospace" x="80" y="180" fill="black" font-size="1em">N</text>
<text text-anchor="middle" font-family="monospace" x="136" y="276" fill="black" font-size="1em">g</text>
<text text-anchor="middle" font-family="monospace" x="312" y="292" fill="black" font-size="1em">g</text>
<text text-anchor="middle" font-family="monospace" x="272" y="628" fill="black" font-size="1em">#</text>
<text text-anchor="middle" font-family="monospace" x="160" y="660" fill="black" font-size="1em">i</text>
<text text-anchor="middle" font-family="monospace" x="208" y="692" fill="black" font-size="1em">i</text>
<text text-anchor="middle" font-family="monospace" x="152" y="196" fill="black" font-size="1em">n</text>
<text text-anchor="middle" font-family="monospace" x="352" y="292" fill="black" font-size="1em">r</text>
<text text-anchor="middle" font-family="monospace" x="328" y="436" fill="black" font-size="1em">l</text>
<text text-anchor="middle" font-family="monospace" x="296" y="516" fill="black" font-size="1em">A</text>
<text text-anchor="middle" font-family="monospace" x="160" y="596" fill="black" font-size="1em">i</text>
<text text-anchor="middle" font-family="monospace" x="72" y="132" fill="black" font-size="1em">i</text>
<text text-anchor="middle" font-family="monospace" x="296" y="372" fill="black" font-size="1em">R</text>
<text text-anchor="middle" font-family="monospace" x="408" y="436" fill="black" font-size="1em">~</text>
<text text-anchor="middle" font-family="monospace" x="120" y="596" fill="black" font-size="1em">t</text>
<text text-anchor="middle" font-family="monospace" x="376" y="564" fill="black" font-size="1em">a</text>
<text text-anchor="middle" font-family="monospace" x="136" y="596" fill="black" font-size="1em">e</text>
<text text-anchor="middle" font-family="monospace" x="192" y="660" fill="black" font-size="1em">e</text>
<text text-anchor="middle" font-family="monospace" x="216" y="724" fill="black" font-size="1em">.</text>
<text text-anchor="middle" font-family="monospace" x="216" y="68" fill="black" font-size="1em">r</text>
<text text-anchor="middle" font-family="monospace" x="64" y="116" fill="black" font-size="1em">O</text>
<text text-anchor="middle" font-family="monospace" x="344" y="436" fill="black" font-size="1em">d</text>
<text text-anchor="middle" font-family="monospace" x="296" y="468" fill="black" font-size="1em">C</text>
<text text-anchor="middle" font-family="monospace" x="160" y="740" fill="black" font-size="1em">i</text>
<text text-anchor="middle" font-family="monospace" x="304" y="740" fill="black" font-size="1em">e</text>
<text text-anchor="middle" font-family="monospace" x="376" y="740" fill="black" font-size="1em">e</text>
<text text-anchor="middle" font-family="monospace" x="72" y="564" fill="black" font-size="1em">w</text>
<text text-anchor="middle" font-family="monospace" x="128" y="564" fill="black" font-size="1em">s</text>
<text text-anchor="middle" font-family="monospace" x="312" y="596" fill="black" font-size="1em">r</text>
<text text-anchor="middle" font-family="monospace" x="128" y="660" fill="black" font-size="1em">h</text>
<text text-anchor="middle" font-family="monospace" x="96" y="132" fill="black" font-size="1em">a</text>
<text text-anchor="middle" font-family="monospace" x="104" y="132" fill="black" font-size="1em">t</text>
<text text-anchor="middle" font-family="monospace" x="64" y="196" fill="black" font-size="1em">[</text>
<text text-anchor="middle" font-family="monospace" x="360" y="388" fill="black" font-size="1em">e</text>
<text text-anchor="middle" font-family="monospace" x="344" y="340" fill="black" font-size="1em">i</text>
<text text-anchor="middle" font-family="monospace" x="312" y="372" fill="black" font-size="1em">s</text>
<text text-anchor="middle" font-family="monospace" x="264" y="660" fill="black" font-size="1em">T</text>
<text text-anchor="middle" font-family="monospace" x="328" y="740" fill="black" font-size="1em">i</text>
<text text-anchor="middle" font-family="monospace" x="40" y="36" fill="black" font-size="1em">C</text>
<text text-anchor="middle" font-family="monospace" x="232" y="36" fill="black" font-size="1em">d</text>
<text text-anchor="middle" font-family="monospace" x="120" y="132" fill="black" font-size="1em">r</text>
<text text-anchor="middle" font-family="monospace" x="104" y="180" fill="black" font-size="1em">i</text>
<text text-anchor="middle" font-family="monospace" x="320" y="276" fill="black" font-size="1em">e</text>
<text text-anchor="middle" font-family="monospace" x="296" y="596" fill="black" font-size="1em">c</text>
<text text-anchor="middle" font-family="monospace" x="248" y="692" fill="black" font-size="1em">t</text>
<text text-anchor="middle" font-family="monospace" x="448" y="68" fill="black" font-size="1em">r</text>
<text text-anchor="middle" font-family="monospace" x="64" y="180" fill="black" font-size="1em">[</text>
<text text-anchor="middle" font-family="monospace" x="136" y="196" fill="black" font-size="1em">i</text>
<text text-anchor="middle" font-family="monospace" x="88" y="244" fill="black" font-size="1em">n</text>
<text text-anchor="middle" font-family="monospace" x="240" y="596" fill="black" font-size="1em">T</text>
<text text-anchor="middle" font-family="monospace" x="248" y="628" fill="black" font-size="1em">t</text>
<text text-anchor="middle" font-family="monospace" x="112" y="196" fill="black" font-size="1em">d</text>
<text text-anchor="middle" font-family="monospace" x="376" y="324" fill="black" font-size="1em">i</text>
<text text-anchor="middle" font-family="monospace" x="152" y="564" fill="black" font-size="1em">n</text>
<text text-anchor="middle" font-family="monospace" x="192" y="596" fill="black" font-size="1em">e</text>
<text text-anchor="middle" font-family="monospace" x="352" y="484" fill="black" font-size="1em">r</text>
<text text-anchor="middle" font-family="monospace" x="320" y="516" fill="black" font-size="1em">n</text>
<text text-anchor="middle" font-family="monospace" x="192" y="68" fill="black" font-size="1em">r</text>
<text text-anchor="middle" font-family="monospace" x="120" y="196" fill="black" font-size="1em">a</text>
<text text-anchor="middle" font-family="monospace" x="320" y="292" fill="black" font-size="1em">n</text>
<text text-anchor="middle" font-family="monospace" x="352" y="388" fill="black" font-size="1em">r</text>
<text text-anchor="middle" font-family="monospace" x="312" y="564" fill="black" font-size="1em">a</text>
<text text-anchor="middle" font-family="monospace" x="232" y="628" fill="black" font-size="1em">c</text>
<text text-anchor="middle" font-family="monospace" x="376" y="660" fill="black" font-size="1em">e</text>
<text text-anchor="middle" font-family="monospace" x="40" y="68" fill="black" font-size="1em">e</text>
<text text-anchor="middle" font-family="monospace" x="376" y="340" fill="black" font-size="1em">i</text>
<text text-anchor="middle" font-family="monospace" x="112" y="564" fill="black" font-size="1em">i</text>
<text text-anchor="middle" font-family="monospace" x="272" y="564" fill="black" font-size="1em">&lt;</text>
<text text-anchor="middle" font-family="monospace" x="176" y="628" fill="black" font-size="1em">C</text>
<text text-anchor="middle" font-family="monospace" x="400" y="340" fill="black" font-size="1em">s</text>
<text text-anchor="middle" font-family="monospace" x="304" y="484" fill="black" font-size="1em">i</text>
<text text-anchor="middle" font-family="monospace" x="136" y="564" fill="black" font-size="1em">u</text>
<text text-anchor="middle" font-family="monospace" x="392" y="564" fill="black" font-size="1em">c</text>
<text text-anchor="middle" font-family="monospace" x="80" y="116" fill="black" font-size="1em">d</text>
<text text-anchor="middle" font-family="monospace" x="344" y="324" fill="black" font-size="1em">R</text>
<text text-anchor="middle" font-family="monospace" x="280" y="596" fill="black" font-size="1em">R</text>
<text text-anchor="middle" font-family="monospace" x="312" y="340" fill="black" font-size="1em">t</text>
<text text-anchor="middle" font-family="monospace" x="240" y="740" fill="black" font-size="1em">T</text>
<text text-anchor="middle" font-family="monospace" x="272" y="772" fill="black" font-size="1em">#</text>
<text text-anchor="middle" font-family="monospace" x="280" y="564" fill="black" font-size="1em">~</text>
<text text-anchor="middle" font-family="monospace" x="400" y="564" fill="black" font-size="1em">e</text>
<text text-anchor="middle" font-family="monospace" x="144" y="740" fill="black" font-size="1em">n</text>
<text text-anchor="middle" font-family="monospace" x="144" y="180" fill="black" font-size="1em">i</text>
<text text-anchor="middle" font-family="monospace" x="64" y="244" fill="black" font-size="1em">S</text>
<text text-anchor="middle" font-family="monospace" x="280" y="436" fill="black" font-size="1em">~</text>
<text text-anchor="middle" font-family="monospace" x="312" y="516" fill="black" font-size="1em">k</text>
<text text-anchor="middle" font-family="monospace" x="368" y="324" fill="black" font-size="1em">u</text>
<text text-anchor="middle" font-family="monospace" x="368" y="564" fill="black" font-size="1em">u</text>
<text text-anchor="middle" font-family="monospace" x="88" y="596" fill="black" font-size="1em">u</text>
<text text-anchor="middle" font-family="monospace" x="336" y="660" fill="black" font-size="1em">f</text>
<text text-anchor="middle" font-family="monospace" x="432" y="36" fill="black" font-size="1em">A</text>
<text text-anchor="middle" font-family="monospace" x="424" y="68" fill="black" font-size="1em">r</text>
<text text-anchor="middle" font-family="monospace" x="128" y="132" fill="black" font-size="1em">e</text>
<text text-anchor="middle" font-family="monospace" x="72" y="244" fill="black" font-size="1em">i</text>
<text text-anchor="middle" font-family="monospace" x="240" y="772" fill="black" font-size="1em">a</text>
<text text-anchor="middle" font-family="monospace" x="208" y="68" fill="black" font-size="1em">e</text>
<text text-anchor="middle" font-family="monospace" x="320" y="484" fill="black" font-size="1em">n</text>
<text text-anchor="middle" font-family="monospace" x="112" y="660" fill="black" font-size="1em">u</text>
<text text-anchor="middle" font-family="monospace" x="144" y="660" fill="black" font-size="1em">n</text>
<text text-anchor="middle" font-family="monospace" x="168" y="660" fill="black" font-size="1em">c</text>
<text text-anchor="middle" font-family="monospace" x="152" y="740" fill="black" font-size="1em">t</text>
<text text-anchor="middle" font-family="monospace" x="96" y="196" fill="black" font-size="1em">l</text>
<text text-anchor="middle" font-family="monospace" x="120" y="276" fill="black" font-size="1em">e</text>
<text text-anchor="middle" font-family="monospace" x="344" y="372" fill="black" font-size="1em">s</text>
<text text-anchor="middle" font-family="monospace" x="304" y="564" fill="black" font-size="1em">w</text>
<text text-anchor="middle" font-family="monospace" x="296" y="740" fill="black" font-size="1em">c</text>
<text text-anchor="middle" font-family="monospace" x="48" y="564" fill="black" font-size="1em">~</text>
<text text-anchor="middle" font-family="monospace" x="104" y="596" fill="black" font-size="1em">a</text>
<text text-anchor="middle" font-family="monospace" x="184" y="692" fill="black" font-size="1em">e</text>
<text text-anchor="middle" font-family="monospace" x="192" y="772" fill="black" font-size="1em">r</text>
<text text-anchor="middle" font-family="monospace" x="32" y="36" fill="black" font-size="1em">D</text>
<text text-anchor="middle" font-family="monospace" x="128" y="180" fill="black" font-size="1em">n</text>
<text text-anchor="middle" font-family="monospace" x="296" y="340" fill="black" font-size="1em">A</text>
<text text-anchor="middle" font-family="monospace" x="336" y="340" fill="black" font-size="1em">r</text>
<text text-anchor="middle" font-family="monospace" x="224" y="740" fill="black" font-size="1em">G</text>
<text text-anchor="middle" font-family="monospace" x="48" y="68" fill="black" font-size="1em">n</text>
<text text-anchor="middle" font-family="monospace" x="288" y="68" fill="black" font-size="1em">t</text>
<text text-anchor="middle" font-family="monospace" x="336" y="388" fill="black" font-size="1em">t</text>
<text text-anchor="middle" font-family="monospace" x="288" y="436" fill="black" font-size="1em">~</text>
<text text-anchor="middle" font-family="monospace" x="336" y="516" fill="black" font-size="1em">w</text>
<text text-anchor="middle" font-family="monospace" x="136" y="660" fill="black" font-size="1em">e</text>
<text text-anchor="middle" font-family="monospace" x="424" y="36" fill="black" font-size="1em">C</text>
<text text-anchor="middle" font-family="monospace" x="80" y="196" fill="black" font-size="1em">v</text>
<text text-anchor="middle" font-family="monospace" x="128" y="244" fill="black" font-size="1em">e</text>
<text text-anchor="middle" font-family="monospace" x="400" y="436" fill="black" font-size="1em">~</text>
<text text-anchor="middle" font-family="monospace" x="352" y="372" fill="black" font-size="1em">e</text>
<text text-anchor="middle" font-family="monospace" x="232" y="660" fill="black" font-size="1em">E</text>
<text text-anchor="middle" font-family="monospace" x="80" y="740" fill="black" font-size="1em">(</text>
<text text-anchor="middle" font-family="monospace" x="144" y="276" fill="black" font-size="1em">e</text>
<text text-anchor="middle" font-family="monospace" x="360" y="292" fill="black" font-size="1em">e</text>
<text text-anchor="middle" font-family="monospace" x="392" y="324" fill="black" font-size="1em">e</text>
<text text-anchor="middle" font-family="monospace" x="352" y="340" fill="black" font-size="1em">z</text>
</g>
</svg>
