<?xml version='1.0' encoding='utf-8'?>
<svg xmlns="http://www.w3.org/2000/svg" class="diagram" version="1.1" height="361" width="408" viewBox="0 0 408.0 361.0">
<g transform="translate(8,16)">
<path d="M 56,0 L 200,0" fill="none" stroke="black"/>
<path d="M 88,16 L 144,16" fill="none" stroke="black"/>
<path d="M 144,16 L 200,16" fill="none" stroke="black"/>
<path d="M 208,32 L 320,32" fill="none" stroke="black"/>
<path d="M 16,48 L 32,48" fill="none" stroke="black"/>
<path d="M 200,64 L 240,64" fill="none" stroke="black"/>
<path d="M 88,80 L 128,80" fill="none" stroke="black"/>
<path d="M 128,80 L 144,80" fill="none" stroke="black"/>
<path d="M 144,80 L 200,80" fill="none" stroke="black"/>
<path d="M 56,96 L 96,96" fill="none" stroke="black"/>
<path d="M 112,96 L 120,96" fill="none" stroke="black"/>
<path d="M 136,96 L 200,96" fill="none" stroke="black"/>
<path d="M 304,112 L 328,112" fill="none" stroke="black"/>
<path d="M 344,112 L 376,112" fill="none" stroke="black"/>
<path d="M 304,128 L 336,128" fill="none" stroke="black"/>
<path d="M 336,128 L 360,128" fill="none" stroke="black"/>
<path d="M 272,144 L 296,144" fill="none" stroke="black"/>
<path d="M 304,176 L 352,176" fill="none" stroke="black"/>
<path d="M 272,192 L 296,192" fill="none" stroke="black"/>
<path d="M 304,208 L 336,208" fill="none" stroke="black"/>
<path d="M 336,208 L 360,208" fill="none" stroke="black"/>
<path d="M 304,224 L 328,224" fill="none" stroke="black"/>
<path d="M 344,224 L 376,224" fill="none" stroke="black"/>
<path d="M 56,240 L 96,240" fill="none" stroke="black"/>
<path d="M 112,240 L 120,240" fill="none" stroke="black"/>
<path d="M 136,240 L 200,240" fill="none" stroke="black"/>
<path d="M 88,256 L 104,256" fill="none" stroke="black"/>
<path d="M 104,256 L 144,256" fill="none" stroke="black"/>
<path d="M 144,256 L 200,256" fill="none" stroke="black"/>
<path d="M 200,272 L 240,272" fill="none" stroke="black"/>
<path d="M 16,288 L 32,288" fill="none" stroke="black"/>
<path d="M 208,304 L 320,304" fill="none" stroke="black"/>
<path d="M 88,320 L 128,320" fill="none" stroke="black"/>
<path d="M 128,320 L 144,320" fill="none" stroke="black"/>
<path d="M 144,320 L 160,320" fill="none" stroke="black"/>
<path d="M 160,320 L 200,320" fill="none" stroke="black"/>
<path d="M 56,336 L 200,336" fill="none" stroke="black"/>
<path d="M 0,64 L 0,160" fill="none" stroke="black"/>
<path d="M 0,192 L 0,272" fill="none" stroke="black"/>
<path d="M 40,16 L 40,80" fill="none" stroke="black"/>
<path d="M 40,256 L 40,320" fill="none" stroke="black"/>
<path d="M 88,16 L 88,80" fill="none" stroke="black"/>
<path d="M 88,256 L 88,320" fill="none" stroke="black"/>
<path d="M 104,96 L 104,192" fill="none" stroke="black"/>
<path d="M 104,224 L 104,256" fill="none" stroke="black"/>
<path d="M 128,80 L 128,112" fill="none" stroke="black"/>
<path d="M 128,144 L 128,240" fill="none" stroke="black"/>
<path d="M 144,16 L 144,80" fill="none" stroke="black"/>
<path d="M 144,256 L 144,320" fill="none" stroke="black"/>
<path d="M 200,16 L 200,64" fill="none" stroke="black"/>
<path d="M 200,64 L 200,80" fill="none" stroke="black"/>
<path d="M 200,256 L 200,272" fill="none" stroke="black"/>
<path d="M 200,272 L 200,320" fill="none" stroke="black"/>
<path d="M 216,40 L 216,56" fill="none" stroke="black"/>
<path d="M 216,280 L 216,296" fill="none" stroke="black"/>
<path d="M 256,112 L 256,128" fill="none" stroke="black"/>
<path d="M 256,208 L 256,224" fill="none" stroke="black"/>
<path d="M 288,160 L 288,176" fill="none" stroke="black"/>
<path d="M 304,128 L 304,176" fill="none" stroke="black"/>
<path d="M 304,176 L 304,208" fill="none" stroke="black"/>
<path d="M 336,48 L 336,64" fill="none" stroke="black"/>
<path d="M 336,96 L 336,128" fill="none" stroke="black"/>
<path d="M 336,208 L 336,240" fill="none" stroke="black"/>
<path d="M 336,272 L 336,288" fill="none" stroke="black"/>
<path d="M 360,128 L 360,208" fill="none" stroke="black"/>
<path d="M 392,128 L 392,208" fill="none" stroke="black"/>
<path d="M 216,16 L 216,24" fill="none" stroke="black"/>
<path d="M 216,40 L 216,48" fill="none" stroke="black"/>
<path d="M 216,72 L 216,80" fill="none" stroke="black"/>
<path d="M 216,256 L 216,264" fill="none" stroke="black"/>
<path d="M 216,280 L 216,288" fill="none" stroke="black"/>
<path d="M 216,312 L 216,320" fill="none" stroke="black"/>
<path d="M 288,128 L 288,136" fill="none" stroke="black"/>
<path d="M 288,152 L 288,160" fill="none" stroke="black"/>
<path d="M 288,176 L 288,184" fill="none" stroke="black"/>
<path d="M 288,200 L 288,208" fill="none" stroke="black"/>
<polygon points="40.000000,48.000000 28.000000,42.400002 28.000000,53.599998" transform="rotate(0.000000, 32.000000, 48.000000)" fill="black"/>
<polygon points="40.000000,288.000000 28.000000,282.399994 28.000000,293.600006" transform="rotate(0.000000, 32.000000, 288.000000)" fill="black"/>
<path d="M 104,88 L 104,96" fill="none" stroke="black"/>
<polygon points="120.000000,96.000000 108.000000,90.400002 108.000000,101.599998" transform="rotate(270.000000, 104.000000, 96.000000)" fill="black"/>
<path d="M 128,240 L 128,248" fill="none" stroke="black"/>
<polygon points="144.000000,240.000000 132.000000,234.399994 132.000000,245.600006" transform="rotate(90.000000, 128.000000, 240.000000)" fill="black"/>
<polygon points="216.000000,32.000000 204.000000,26.400000 204.000000,37.599998" transform="rotate(180.000000, 208.000000, 32.000000)" fill="black"/>
<polygon points="216.000000,304.000000 204.000000,298.399994 204.000000,309.600006" transform="rotate(180.000000, 208.000000, 304.000000)" fill="black"/>
<polygon points="304.000000,144.000000 292.000000,138.399994 292.000000,149.600006" transform="rotate(0.000000, 296.000000, 144.000000)" fill="black"/>
<polygon points="304.000000,192.000000 292.000000,186.399994 292.000000,197.600006" transform="rotate(0.000000, 296.000000, 192.000000)" fill="black"/>
<path d="M 56,0 A 16,16 0 0,0 40,16" fill="none" stroke="black"/>
<path d="M 200,0 A 16,16 0 0,1 216,16" fill="none" stroke="black"/>
<path d="M 320,32 A 16,16 0 0,1 336,48" fill="none" stroke="black"/>
<path d="M 16,48 A 16,16 0 0,0 0,64" fill="none" stroke="black"/>
<path d="M 240,64 A 16,16 0 0,1 256,80" fill="none" stroke="black"/>
<path d="M 40,80 A 16,16 0 0,0 56,96" fill="none" stroke="black"/>
<path d="M 216,80 A 16,16 0 0,1 200,96" fill="none" stroke="black"/>
<path d="M 304,112 A 16,16 0 0,0 288,128" fill="none" stroke="black"/>
<path d="M 376,112 A 16,16 0 0,1 392,128" fill="none" stroke="black"/>
<path d="M 256,128 A 16,16 0 0,0 272,144" fill="none" stroke="black"/>
<path d="M 272,192 A 16,16 0 0,0 256,208" fill="none" stroke="black"/>
<path d="M 288,208 A 16,16 0 0,0 304,224" fill="none" stroke="black"/>
<path d="M 392,208 A 16,16 0 0,1 376,224" fill="none" stroke="black"/>
<path d="M 56,240 A 16,16 0 0,0 40,256" fill="none" stroke="black"/>
<path d="M 200,240 A 16,16 0 0,1 216,256" fill="none" stroke="black"/>
<path d="M 256,256 A 16,16 0 0,1 240,272" fill="none" stroke="black"/>
<path d="M 0,272 A 16,16 0 0,0 16,288" fill="none" stroke="black"/>
<path d="M 336,288 A 16,16 0 0,1 320,304" fill="none" stroke="black"/>
<path d="M 40,320 A 16,16 0 0,0 56,336" fill="none" stroke="black"/>
<path d="M 216,320 A 16,16 0 0,1 200,336" fill="none" stroke="black"/>
<text text-anchor="middle" font-family="monospace" x="160" y="36" fill="black" font-size="1em">S</text>
<text text-anchor="middle" font-family="monospace" x="56" y="52" fill="black" font-size="1em">S</text>
<text text-anchor="middle" font-family="monospace" x="160" y="68" fill="black" font-size="1em">c</text>
<text text-anchor="middle" font-family="monospace" x="336" y="164" fill="black" font-size="1em">A</text>
<text text-anchor="middle" font-family="monospace" x="344" y="196" fill="black" font-size="1em">P</text>
<text text-anchor="middle" font-family="monospace" x="320" y="196" fill="black" font-size="1em">H</text>
<text text-anchor="middle" font-family="monospace" x="120" y="68" fill="black" font-size="1em">v</text>
<text text-anchor="middle" font-family="monospace" x="336" y="84" fill="black" font-size="1em">4</text>
<text text-anchor="middle" font-family="monospace" x="72" y="292" fill="black" font-size="1em">2</text>
<text text-anchor="middle" font-family="monospace" x="160" y="292" fill="black" font-size="1em">H</text>
<text text-anchor="middle" font-family="monospace" x="120" y="52" fill="black" font-size="1em">l</text>
<text text-anchor="middle" font-family="monospace" x="128" y="52" fill="black" font-size="1em">e</text>
<text text-anchor="middle" font-family="monospace" x="168" y="52" fill="black" font-size="1em">e</text>
<text text-anchor="middle" font-family="monospace" x="320" y="148" fill="black" font-size="1em">A</text>
<text text-anchor="middle" font-family="monospace" x="328" y="148" fill="black" font-size="1em">C</text>
<text text-anchor="middle" font-family="monospace" x="344" y="148" fill="black" font-size="1em">E</text>
<text text-anchor="middle" font-family="monospace" x="176" y="52" fill="black" font-size="1em">l</text>
<text text-anchor="middle" font-family="monospace" x="376" y="180" fill="black" font-size="1em">A</text>
<text text-anchor="middle" font-family="monospace" x="256" y="244" fill="black" font-size="1em">6</text>
<text text-anchor="middle" font-family="monospace" x="104" y="292" fill="black" font-size="1em">d</text>
<text text-anchor="middle" font-family="monospace" x="336" y="148" fill="black" font-size="1em">M</text>
<text text-anchor="middle" font-family="monospace" x="104" y="276" fill="black" font-size="1em">S</text>
<text text-anchor="middle" font-family="monospace" x="176" y="36" fill="black" font-size="1em">A</text>
<text text-anchor="middle" font-family="monospace" x="112" y="68" fill="black" font-size="1em">r</text>
<text text-anchor="middle" font-family="monospace" x="112" y="276" fill="black" font-size="1em">T</text>
<text text-anchor="middle" font-family="monospace" x="128" y="292" fill="black" font-size="1em">e</text>
<text text-anchor="middle" font-family="monospace" x="168" y="292" fill="black" font-size="1em">T</text>
<text text-anchor="middle" font-family="monospace" x="104" y="308" fill="black" font-size="1em">c</text>
<text text-anchor="middle" font-family="monospace" x="376" y="164" fill="black" font-size="1em">C</text>
<text text-anchor="middle" font-family="monospace" x="120" y="308" fill="black" font-size="1em">i</text>
<text text-anchor="middle" font-family="monospace" x="128" y="36" fill="black" font-size="1em">R</text>
<text text-anchor="middle" font-family="monospace" x="128" y="132" fill="black" font-size="1em">5</text>
<text text-anchor="middle" font-family="monospace" x="336" y="260" fill="black" font-size="1em">7</text>
<text text-anchor="middle" font-family="monospace" x="56" y="292" fill="black" font-size="1em">S</text>
<text text-anchor="middle" font-family="monospace" x="64" y="292" fill="black" font-size="1em">P</text>
<text text-anchor="middle" font-family="monospace" x="112" y="308" fill="black" font-size="1em">l</text>
<text text-anchor="middle" font-family="monospace" x="112" y="52" fill="black" font-size="1em">e</text>
<text text-anchor="middle" font-family="monospace" x="160" y="52" fill="black" font-size="1em">d</text>
<text text-anchor="middle" font-family="monospace" x="328" y="164" fill="black" font-size="1em">T</text>
<text text-anchor="middle" font-family="monospace" x="336" y="196" fill="black" font-size="1em">T</text>
<text text-anchor="middle" font-family="monospace" x="320" y="164" fill="black" font-size="1em">S</text>
<text text-anchor="middle" font-family="monospace" x="328" y="196" fill="black" font-size="1em">T</text>
<text text-anchor="middle" font-family="monospace" x="104" y="36" fill="black" font-size="1em">S</text>
<text text-anchor="middle" font-family="monospace" x="168" y="36" fill="black" font-size="1em">T</text>
<text text-anchor="middle" font-family="monospace" x="72" y="52" fill="black" font-size="1em">1</text>
<text text-anchor="middle" font-family="monospace" x="184" y="52" fill="black" font-size="1em">e</text>
<text text-anchor="middle" font-family="monospace" x="168" y="68" fill="black" font-size="1em">l</text>
<text text-anchor="middle" font-family="monospace" x="176" y="68" fill="black" font-size="1em">i</text>
<text text-anchor="middle" font-family="monospace" x="128" y="276" fill="black" font-size="1em">R</text>
<text text-anchor="middle" font-family="monospace" x="120" y="36" fill="black" font-size="1em">A</text>
<text text-anchor="middle" font-family="monospace" x="120" y="276" fill="black" font-size="1em">A</text>
<text text-anchor="middle" font-family="monospace" x="176" y="292" fill="black" font-size="1em">T</text>
<text text-anchor="middle" font-family="monospace" x="120" y="292" fill="black" font-size="1em">l</text>
<text text-anchor="middle" font-family="monospace" x="112" y="36" fill="black" font-size="1em">T</text>
<text text-anchor="middle" font-family="monospace" x="104" y="52" fill="black" font-size="1em">d</text>
<text text-anchor="middle" font-family="monospace" x="104" y="68" fill="black" font-size="1em">s</text>
<text text-anchor="middle" font-family="monospace" x="256" y="100" fill="black" font-size="1em">3</text>
<text text-anchor="middle" font-family="monospace" x="0" y="180" fill="black" font-size="1em">1</text>
<text text-anchor="middle" font-family="monospace" x="104" y="212" fill="black" font-size="1em">2</text>
<text text-anchor="middle" font-family="monospace" x="64" y="52" fill="black" font-size="1em">P</text>
<text text-anchor="middle" font-family="monospace" x="112" y="292" fill="black" font-size="1em">e</text>
<text text-anchor="middle" font-family="monospace" x="184" y="36" fill="black" font-size="1em">R</text>
<text text-anchor="middle" font-family="monospace" x="344" y="164" fill="black" font-size="1em">R</text>
<text text-anchor="middle" font-family="monospace" x="184" y="292" fill="black" font-size="1em">P</text>
</g>
</svg>
